<?xml version="1.0" standalone="no"?>
<!DOCTYPE svg PUBLIC "-//W3C//DTD SVG 1.1//EN" "http://www.w3.org/Graphics/SVG/1.1/DTD/svg11.dtd" >
<svg>
<metadata>
Created by FontForge 20090914 at Sat Feb 21 13:59:01 2015
 By www-data
Copyright 1990-2003 Bitstream Inc. All rights reserved.
</metadata>
<defs>
<font id="Humanist521BT-Light" horiz-adv-x="1024" >
  <font-face 
    font-family="Humanst521 Lt BT"
    font-weight="400"
    font-stretch="normal"
    units-per-em="2048"
    panose-1="2 11 4 2 2 2 4 2 3 4"
    ascent="1556"
    descent="-492"
    x-height="924"
    cap-height="1399"
    bbox="-342 -483 2574 1956"
    underline-thickness="72"
    underline-position="-195"
    unicode-range="U+0020-U+F002"
  />
<missing-glyph horiz-adv-x="1229" 
d="M102 -362v1806h1024v-1806h-1024zM217 -248h795v1577h-795v-1577z" />
    <glyph glyph-name=".notdef" horiz-adv-x="1229" 
d="M102 -362v1806h1024v-1806h-1024zM217 -248h795v1577h-795v-1577z" />
    <glyph glyph-name="space" unicode=" " horiz-adv-x="516" 
 />
    <glyph glyph-name="exclam" unicode="!" horiz-adv-x="516" 
d="M225 397l-28 1002h125l-31 -1002h-66zM193 0v205h133v-205h-133z" />
    <glyph glyph-name="quotedbl" unicode="&#x22;" horiz-adv-x="551" 
d="M451 1434v-553h-86v553h86zM186 1434v-553h-86v553h86z" />
    <glyph glyph-name="numbersign" unicode="#" horiz-adv-x="1575" 
d="M979 866h-270l-99 -282h269zM915 1454l-174 -498h271l176 498h110l-174 -498h322l-31 -90h-323l-101 -282h348l-30 -90h-351l-174 -494h-112l176 494h-270l-179 -494h-110l174 494h-334l31 90h336l100 282h-360l28 90h365l176 498h110z" />
    <glyph glyph-name="dollar" unicode="$" horiz-adv-x="1034" 
d="M557 109c96 6.66699 171.167 32.499 225.5 77.499s81.5 103.5 81.5 175.5c0 68.667 -23.167 124.334 -69.5 167.001s-125.5 80.667 -237.5 114v-534zM467 794.999v499c-92 -6.66699 -163.833 -31 -215.5 -73s-77.5 -96.667 -77.5 -164c0 -60.667 24.5 -113 73.5 -157
s122.167 -79 219.5 -105zM467 -227.001l0.000976562 228.999c-76.667 2 -149.334 17 -218.001 45s-132.667 69 -192 123v127c74.667 -64 145.167 -111.167 211.5 -141.5s132.5 -45.833 198.5 -46.5v563c-136 42.667 -235.5 94.334 -298.5 155.001s-94.5 134.667 -94.5 222
c0 97.333 35.667 177 107 239s166.666 95.667 285.999 101v145h90v-145c66.667 0 130.334 -10.5 191.001 -31.5s118.667 -52.167 174 -93.5v-117c-68.667 48.667 -132.167 85 -190.5 109s-112.5 36 -162.5 36h-12v-532c148 -40 254.667 -90.333 320 -151
s98 -138.667 98 -234c0 -108 -37.833 -195.833 -113.5 -263.5s-177.167 -104.167 -304.5 -109.5v-229h-90z" />
    <glyph glyph-name="percent" unicode="%" horiz-adv-x="1772" 
d="M1036 354c0 -78.667 27.167 -145.333 81.5 -200s120.833 -82 199.5 -82c78 0 144.167 27.333 198.5 82s81.5 121.334 81.5 200.001c0 79.333 -27.167 146.666 -81.5 201.999s-120.5 83 -198.5 83s-144.333 -27.5 -199 -82.5s-82 -122.5 -82 -202.5zM938 354.001
c0 106 36.833 196 110.5 270s163.167 111 268.5 111s194.833 -37 268.5 -111s110.5 -164 110.5 -270c0 -105.333 -36.833 -194.833 -110.5 -268.5s-163.167 -110.5 -268.5 -110.5s-194.833 36.833 -268.5 110.5s-110.5 163.167 -110.5 268.5zM362 -24.999l938 1446h109
l-940 -1446h-107zM176 1042c0 -79.333 26.832 -146.499 80.499 -201.499s119.834 -82.5 198.501 -82.5c77.333 0 143.333 27.667 198 83s82 122.333 82 201c0 79.333 -27.333 146.666 -82 201.999s-120.667 83 -198 83c-78 0 -144 -27.5 -198 -82.5s-81 -122.5 -81 -202.5z
M75.999 1042c0 106 36.667 195.667 110 269s163 110 269 110c105.333 0 194.833 -36.667 268.5 -110s110.5 -163 110.5 -269c0 -105.333 -36.833 -194.666 -110.5 -267.999s-163.167 -110 -268.5 -110c-106 0 -195.667 36.667 -269 110s-110 162.666 -110 267.999z" />
    <glyph glyph-name="ampersand" unicode="&#x26;" horiz-adv-x="1266" 
d="M823 301l-346 366.999c-100 -42 -175.167 -91.167 -225.5 -147.5s-75.5 -119.166 -75.5 -188.499c0 -70 25.333 -128.833 76 -176.5s112.667 -71.5 186 -71.5c72 0 140.667 18.333 206 55s125 90.667 179 162zM510 790.999c86.667 40.667 150.668 84.332 192.001 130.999
s62 98.334 62 155.001c0 60 -20 108.5 -60 145.5s-93 55.5 -159 55.5c-58.667 0 -107.834 -18.833 -147.501 -56.5s-59.5 -84.5 -59.5 -140.5c0 -46.667 13.833 -93.667 41.5 -141s71.167 -97 130.5 -149zM1110 -0.00292969l-208.999 219.001
c-63.333 -79.333 -134.333 -138.333 -213 -177s-166 -58 -262 -58c-110.667 0 -200.5 31.833 -269.5 95.5s-103.5 145.834 -103.5 246.501c0 85.333 30.167 164.833 90.5 238.5s145.5 135.5 255.5 185.5c-56.667 54.667 -98.834 108.834 -126.501 162.501
s-41.5 108.5 -41.5 164.5c0 85.333 30.833 156.166 92.5 212.499s139.5 84.5 233.5 84.5c93.333 0 169.166 -27.333 227.499 -82s87.5 -125 87.5 -211c0 -74.667 -24 -142.334 -72 -203.001s-120.667 -114.334 -218 -161.001l309 -328c31.333 40.667 59.166 87 83.499 139
s45.5 111 63.5 177h115c-17.333 -76.667 -41.666 -147.5 -72.999 -212.5s-69.666 -125.5 -114.999 -181.5l292 -311h-147z" />
    <glyph glyph-name="quotesingle" unicode="'" horiz-adv-x="285" 
d="M186 1434v-553h-86v553h86z" />
    <glyph glyph-name="parenleft" unicode="(" horiz-adv-x="571" 
d="M557 1423c-130 -143.333 -226.333 -291.666 -289 -444.999s-94 -317.666 -94 -492.999c0 -174.667 31.333 -339.167 94 -493.5s159 -303.166 289 -446.499h-98c-133.333 141.333 -233 290.166 -299 446.499s-99 320.833 -99 493.5c0 173.333 33 337.666 99 492.999
s165.667 303.666 299 444.999h98z" />
    <glyph glyph-name="parenright" unicode=")" horiz-adv-x="571" 
d="M14 -455c130 143.333 226.333 292.166 289 446.499s94 318.833 94 493.5c0 175.333 -31.333 339.666 -94 492.999s-159 301.666 -289 444.999h99c132.667 -141.333 232 -289.666 298 -444.999s99 -319.666 99 -492.999c0 -172.667 -33 -337.167 -99 -493.5
s-165.333 -305.166 -298 -446.499h-99z" />
    <glyph glyph-name="asterisk" unicode="*" horiz-adv-x="905" 
d="M401 608l41 379l-241 -297l-72 72l297 242l-381 -39v100l381 -39l-297 242l72 71l241 -297l-41 379h103l-41 -379l242 297l71 -71l-297 -242l381 39v-100l-381 39l297 -242l-71 -72l-242 297l41 -379h-103z" />
    <glyph glyph-name="plus" unicode="+" horiz-adv-x="1706" 
d="M893 1221v-570h559v-82h-559v-569h-80v569h-559v82h559v570h80z" />
    <glyph glyph-name="comma" unicode="," horiz-adv-x="516" 
d="M248 0l-55 -0.000976562v205h133v-154c0 -74 -10.167 -132.667 -30.5 -176s-54.5 -81.666 -102.5 -114.999v80c18.667 14.667 32.5 33.5 41.5 56.5s13.5 52.833 13.5 89.5v14z" />
    <glyph glyph-name="hyphen" unicode="-" horiz-adv-x="682" 
d="M96 414v96h492v-96h-492z" />
    <glyph glyph-name="period" unicode="." horiz-adv-x="516" 
d="M193 0v205h133v-205h-133z" />
    <glyph glyph-name="slash" unicode="/" horiz-adv-x="569" 
d="M90 -190h-96l594 1611h96z" />
    <glyph glyph-name="zero" unicode="0" horiz-adv-x="1034" 
d="M180 698c0 -191.333 30.5 -342.499 91.5 -453.499s142.5 -166.5 244.5 -166.5s183.5 55.667 244.5 167s91.5 262.333 91.5 453c0 191.333 -30.5 342.666 -91.5 453.999s-142.5 167 -244.5 167s-183.5 -55.5 -244.5 -166.5s-91.5 -262.5 -91.5 -454.5zM72 698.001
c0 222.667 40.167 398.834 120.5 528.501s188.166 194.5 323.499 194.5s243.333 -64.833 324 -194.5s121 -305.834 121 -528.501s-40.333 -398.834 -121 -528.501s-188.667 -194.5 -324 -194.5s-243.166 64.833 -323.499 194.5s-120.5 305.834 -120.5 528.501z" />
    <glyph glyph-name="one" unicode="1" horiz-adv-x="1034" 
d="M465 0v1399h104v-1399h-104z" />
    <glyph glyph-name="two" unicode="2" horiz-adv-x="1034" 
d="M84 0l0.000976562 18c208.667 208 368 397.5 478 568.5s165 314.833 165 431.5c0 92 -30.167 166.5 -90.5 223.5s-138.833 85.5 -235.5 85.5c-48 0 -96.333 -11.833 -145 -35.5s-99.334 -60.167 -152.001 -109.5v114c50.667 43.333 102 75.333 154 96s106.667 31 164 31
c121.333 0 220.333 -38.333 297 -115s115 -176 115 -298c0 -110 -42 -238 -126 -384s-215.667 -320 -395 -522h654v-104h-883z" />
    <glyph glyph-name="three" unicode="3" horiz-adv-x="1034" 
d="M96 51l-0.00195312 109.003c51.333 -27.333 101.333 -47.5 150 -60.5s97.667 -19.5 147 -19.5c106 0 189.833 27.167 251.5 81.5s92.5 128.166 92.5 221.499c0 94.667 -31.833 169.334 -95.5 224.001s-151.167 82.667 -262.5 84v100c109.333 6.66699 194 33.667 254 81
s90 110.333 90 189s-29.833 143 -89.5 193s-137.167 75 -232.5 75c-46 0 -91.833 -8 -137.5 -24s-94.5 -41.333 -146.5 -76v104c43.333 29.333 89.5 51.333 138.5 66s100.5 22 154.5 22c126.667 0 227.834 -32.333 303.501 -97s113.5 -150.334 113.5 -257.001
c0 -80 -20.5 -147.167 -61.5 -201.5s-101.5 -94.5 -181.5 -120.5c88 -28.667 153.667 -72.834 197 -132.501s65 -135.5 65 -227.5c0 -122.667 -40.667 -221.334 -122 -296.001s-189.666 -112 -324.999 -112c-59.333 0 -114.5 6.33301 -165.5 19s-96.833 31 -137.5 55z" />
    <glyph glyph-name="four" unicode="4" horiz-adv-x="1034" 
d="M674 627v581l-488 -581h488zM674 0v530h-637v45l702 842h39v-790h199v-97h-199v-530h-104z" />
    <glyph glyph-name="five" unicode="5" horiz-adv-x="1034" 
d="M111 78l0.00292969 120.999c56.667 -40 113.167 -69.833 169.5 -89.5s112.5 -29.5 168.5 -29.5c101.333 0 184 32.333 248 97s96 148.334 96 251.001c0 106 -32.833 189.5 -98.5 250.5s-155.834 91.5 -270.501 91.5c-24.667 0 -53.334 -1.5 -86.001 -4.5
s-68.667 -7.5 -108 -13.5l-1 647h596v-101h-491v-440c18 2.66699 36.667 4.66699 56 6s39.666 2 60.999 2c140.667 0 251.5 -39 332.5 -117s121.5 -184.333 121.5 -319s-43.167 -244.167 -129.5 -328.5s-199.5 -126.5 -339.5 -126.5c-60 0 -117.167 8.66699 -171.5 26
s-105.5 43 -153.5 77z" />
    <glyph glyph-name="six" unicode="6" horiz-adv-x="1034" 
d="M240 655c48.667 38.667 97.832 67.166 147.499 85.499s102.834 27.5 159.501 27.5c112.667 0 206.334 -37 281.001 -111s112 -167.333 112 -280c0 -120 -37.667 -217 -113 -291s-175 -111 -299 -111c-126.667 0 -227.834 45.333 -303.501 136s-113.5 212.667 -113.5 366
c0 173.333 49.5 338.333 148.5 495s248.833 306.334 449.5 449.001l53 -67c-152.667 -114 -272 -228.5 -358 -343.5s-140.667 -233.5 -164 -355.5zM224.998 531.999v-5c-2.66699 -32 -4 -55.333 -4 -70c0 -116 28.333 -207.833 85 -275.5s133.667 -101.5 231 -101.5
c86.667 0 157 25.833 211 77.5s81 118.5 81 200.5c0 95.333 -27.333 170.5 -82 225.5s-129.667 82.5 -225 82.5c-48.667 0 -98.5 -11.5 -149.5 -34.5s-100.167 -56.167 -147.5 -99.5z" />
    <glyph glyph-name="seven" unicode="7" horiz-adv-x="1034" 
d="M236 16l587 1282h-764v101h912v-15l-641 -1411z" />
    <glyph glyph-name="eight" unicode="8" horiz-adv-x="1034" 
d="M324 725c-60 39.333 -105.5 86.3291 -136.5 140.996s-46.5 115.667 -46.5 183c0 104.667 36 193.167 108 265.5s161 108.5 267 108.5c106.667 0 196.167 -36 268.5 -108s108.5 -160.667 108.5 -266c0 -66.667 -15.5 -127.5 -46.5 -182.5s-76.167 -101.5 -135.5 -139.5
c70 -43.333 122.667 -94.166 158 -152.499s53 -124.166 53 -197.499c0 -115.333 -38.667 -211.166 -116 -287.499s-174 -114.5 -290 -114.5s-212.167 38.333 -288.5 115s-114.5 172.334 -114.5 287.001c0 72.667 17.5 138 52.5 196s87.833 108.667 158.5 152zM242 1051
c0 -76 27.1689 -141.167 81.502 -195.5s119.166 -81.5 194.499 -81.5c76 0 140.833 27 194.5 81s80.5 119.333 80.5 196s-26.667 141.834 -80 195.501s-118.333 80.5 -195 80.5s-141.834 -26.833 -195.501 -80.5s-80.5 -118.834 -80.5 -195.501zM221.002 376.996
c0 -83.333 29 -154.668 87 -214.001s127.333 -89 208 -89c83.333 0 154 29.333 212 88s87 130.334 87 215.001s-28.833 156.667 -86.5 216s-127.834 89 -210.501 89c-81.333 0 -151.166 -30 -209.499 -90s-87.5 -131.667 -87.5 -215z" />
    <glyph glyph-name="nine" unicode="9" horiz-adv-x="1034" 
d="M788 743c-48.667 -38 -98.168 -66.167 -148.501 -84.5s-103.833 -27.5 -160.5 -27.5c-112.667 0 -206 37 -280 111s-111 167.333 -111 280c0 120 37.667 216.5 113 289.5s175 109.5 299 109.5c127.333 0 228.833 -45 304.5 -135s113.5 -211.333 113.5 -364
c0 -174 -49.833 -339.667 -149.5 -497s-249.5 -307.333 -449.5 -450l-55 70c153.333 114 273.333 228.5 360 343.5s141.334 233.167 164.001 354.5zM802.999 866v6.00098c2.66699 32 4 54.667 4 68c0 116.667 -28.5 209 -85.5 277s-134.5 102 -232.5 102
c-86 0 -155.833 -25.833 -209.5 -77.5s-80.5 -118.834 -80.5 -201.501c0 -94.667 27.333 -169.5 82 -224.5s129.667 -82.5 225 -82.5c49.333 0 99.333 11.5 150 34.5s99.667 55.833 147 98.5z" />
    <glyph glyph-name="colon" unicode=":" horiz-adv-x="516" 
d="M193 721v203h133v-203h-133zM193 0v205h133v-205h-133z" />
    <glyph glyph-name="semicolon" unicode=";" horiz-adv-x="516" 
d="M193 721v203h133v-203h-133zM248 0l-55 -0.000976562v205h133v-154c0 -74 -10.167 -132.667 -30.5 -176s-54.5 -81.666 -102.5 -114.999v80c18.667 14.667 32.5 33.5 41.5 56.5s13.5 52.833 13.5 89.5v14z" />
    <glyph glyph-name="less" unicode="&#x3c;" horiz-adv-x="1706" 
d="M1442 1034l-1045 -424l1045 -424v-88l-1178 482v61l1178 483v-90z" />
    <glyph glyph-name="equal" unicode="=" horiz-adv-x="1706" 
d="M1452 469v-82h-1198v82h1198zM1452 831v-79h-1198v79h1198z" />
    <glyph glyph-name="greater" unicode="&#x3e;" horiz-adv-x="1706" 
d="M1442 641v-61l-1178 -482v88l1045 424l-1045 424v90z" />
    <glyph glyph-name="question" unicode="?" horiz-adv-x="651" 
d="M279 346c-30 28.667 -52.333 59.6689 -67 93.002s-22 70 -22 110c0 61.333 49.333 167.666 148 318.999l10 17c26 40.667 46.5 82.667 61.5 126s22.5 81.666 22.5 114.999c0 64.667 -13.5 114.667 -40.5 150s-65.5 53 -115.5 53c-29.333 0 -56.333 -7.5 -81 -22.5
s-52 -40.833 -82 -77.5l-17 10l45 143c20.667 14 42.167 24 64.5 30s48.166 9 77.499 9c74 0 135.5 -27.5 184.5 -82.5s73.5 -125.167 73.5 -210.5c0 -45.333 -9.16699 -93.833 -27.5 -145.5s-47.5 -110.167 -87.5 -175.5c-11.333 -18.667 -29 -45 -53 -79
c-64.667 -90 -97 -163.333 -97 -220c0 -25.333 3.33301 -49 10 -71s16.334 -42 29.001 -60zM219 0.00195312v205h133v-205h-133z" />
    <glyph glyph-name="at" unicode="@" horiz-adv-x="2048" 
d="M1303 827l61.001 128.998h80l-137 -553c-6.66699 -24 -11.834 -45.5 -15.501 -64.5s-5.5 -33.5 -5.5 -43.5c0 -29.333 10.167 -52 30.5 -68s49.166 -24 86.499 -24c32 0 65.333 6.5 100 19.5s69 31.833 103 56.5c67.333 49.333 121.333 118.333 162 207
s61 182.667 61 282c0 182 -66.5 328.5 -199.5 439.5s-308.167 166.5 -525.5 166.5c-112 0 -215.5 -16 -310.5 -48s-181.167 -80 -258.5 -144c-102.667 -85.333 -180 -184.333 -232 -297s-78 -237.667 -78 -375c0 -218 73.833 -392 221.5 -522s344.834 -195 591.501 -195
c107.333 0 215.333 16.833 324 50.5s208.334 81.167 299.001 142.5l29 -45c-97.333 -73.333 -200.166 -128.333 -308.499 -165s-221.5 -55 -339.5 -55c-124.667 0 -239 15.5 -343 46.5s-196.333 77.167 -277 138.5c-101.333 76.667 -176.833 165.834 -226.5 267.501
s-74.5 217.834 -74.5 348.501c0 108 16.833 210.333 50.5 307s82.834 185 147.501 265c96 116.667 211.167 205.167 345.5 265.5s284.166 90.5 449.499 90.5c106.667 0 208.167 -14.667 304.5 -44s179.166 -70.666 248.499 -123.999c85.333 -65.333 150 -140.833 194 -226.5
s66 -178.167 66 -277.5c0 -112.667 -21 -215.334 -63 -308.001s-102.333 -170 -181 -232c-44.667 -36 -93.167 -63.5 -145.5 -82.5s-105.5 -28.5 -159.5 -28.5c-63.333 0 -111.166 12.167 -143.499 36.5s-48.5 60.5 -48.5 108.5c0 8 1 19.333 3 34c0.666992 2 1 3.66699 1 5
c-32.667 -58.667 -74.334 -104 -125.001 -136s-106 -48 -166 -48c-102.667 0 -180.5 27.667 -233.5 83s-79.5 136.333 -79.5 243c0 152 44.833 280.667 134.5 386s198.5 158 326.5 158c63.333 0 116.666 -14.333 159.999 -43s75.333 -71 96 -127zM1219 466.998l63 254
c-14.667 66 -41.834 116.333 -81.501 151s-90.167 52 -151.5 52c-101.333 0 -186.5 -46 -255.5 -138s-103.5 -205.333 -103.5 -340c0 -76.667 19.167 -136.667 57.5 -180s91.5 -65 159.5 -65c74 0 139.333 24.167 196 72.5s95.334 112.833 116.001 193.5z" />
    <glyph glyph-name="A" unicode="A" horiz-adv-x="1159" 
d="M311 582h537l-268 635zM-53 0l610 1411h45l610 -1411h-118l-207 487h-615l-206 -487h-119z" />
    <glyph glyph-name="B" unicode="B" horiz-adv-x="1118" 
d="M276 664v-570.001h232c143.333 0 247.833 22.333 313.5 67s98.5 115.334 98.5 212.001c0 88 -34.167 158.5 -102.5 211.5s-159.833 79.5 -274.5 79.5h-267zM276 1309l-0.000976562 -551.001h228c90.667 0 163.834 25.5 219.501 76.5s83.5 118.167 83.5 201.5
c0 84.667 -28.667 151.334 -86 200.001s-136 73 -236 73h-209zM163.999 -0.00195312l-0.000976562 1399h330c131.333 0 235.5 -32 312.5 -96s115.5 -150.333 115.5 -259c0 -72 -16.667 -134 -50 -186s-83 -93.667 -149 -125c106 -26.667 186 -71.334 240 -134.001
s81 -142.334 81 -239.001c0 -60 -14.167 -114.833 -42.5 -164.5s-69.166 -91.5 -122.499 -125.5c-39.333 -25.333 -85.5 -43.333 -138.5 -54s-135.167 -16 -246.5 -16h-330z" />
    <glyph glyph-name="C" unicode="C" horiz-adv-x="1391" 
d="M1327 104c-83.333 -42.667 -165.668 -74.833 -247.001 -96.5s-162 -32.5 -242 -32.5c-80.667 0 -157.167 10.5 -229.5 31.5s-139.833 52.167 -202.5 93.5c-102.667 66.667 -182.334 153 -239.001 259s-85 221.333 -85 346c0 94 18.667 185.167 56 273.5
s90.333 165.5 159 231.5c72 70 153.833 123 245.5 159s190.167 54 295.5 54c76.667 0 155.667 -10.833 237 -32.5s165.333 -54.5 252 -98.5v-116c-94 50 -181.333 87 -262 111s-157.667 36 -231 36c-65.333 0 -127.666 -8.83301 -186.999 -26.5s-115.333 -43.5 -168 -77.5
c-86.667 -58.667 -154 -133.167 -202 -223.5s-72 -188.833 -72 -295.5c0 -82 15.5 -161.5 46.5 -238.5s74.833 -144.833 131.5 -203.5s123.834 -103.667 201.501 -135s160.834 -47 249.501 -47c72.667 0 149.167 12 229.5 36s168.166 61 263.499 111v-119z" />
    <glyph glyph-name="D" unicode="D" horiz-adv-x="1497" 
d="M621 1298h-338v-1200h338c92 0 171.167 7.66699 237.5 23s123.5 39.333 171.5 72c78 52 139.167 122.667 183.5 212s66.5 187 66.5 293s-22.167 203.833 -66.5 293.5s-105.5 160.5 -183.5 212.5c-48 32.667 -105.167 56.5 -171.5 71.5s-145.5 22.5 -237.5 22.5zM649 1399
c106.667 0 197.5 -10.1689 272.5 -30.502s142.5 -52.5 202.5 -96.5c88 -65.333 156.5 -148.166 205.5 -248.499s73.5 -208.166 73.5 -323.499c0 -114.667 -24.5 -222.167 -73.5 -322.5s-117.5 -183.166 -205.5 -248.499c-60 -44.667 -128 -77.334 -204 -98.001
s-166.333 -31 -271 -31h-485v1399h485z" />
    <glyph glyph-name="E" unicode="E" horiz-adv-x="1010" 
d="M164 0v1399h758v-90h-646v-555h625v-90h-625v-570h662v-94h-774z" />
    <glyph glyph-name="F" unicode="F" horiz-adv-x="915" 
d="M164 0v1399h710v-94h-593v-517h536v-92h-536v-696h-117z" />
    <glyph glyph-name="G" unicode="G" horiz-adv-x="1464" 
d="M1327 104c-86 -43.333 -169.334 -75.668 -250.001 -97.001s-160.334 -32 -239.001 -32c-80.667 0 -157.167 10.5 -229.5 31.5s-139.833 52.167 -202.5 93.5c-102.667 66.667 -182.334 153 -239.001 259s-85 221.333 -85 346c0 94 18.667 185.167 56 273.5
s90.333 165.5 159 231.5c72 70.667 153.667 123.834 245 159.501s190 53.5 296 53.5c78 0 157.5 -10.833 238.5 -32.5s164.5 -54.5 250.5 -98.5v-116c-94 50 -181.333 87 -262 111s-157.667 36 -231 36c-65.333 0 -127.666 -8.83301 -186.999 -26.5
s-115.333 -43.5 -168 -77.5c-86.667 -58.667 -154 -133.167 -202 -223.5s-72 -188.833 -72 -295.5c0 -82 15.5 -161.5 46.5 -238.5s74.833 -144.833 131.5 -203.5s123.834 -103.667 201.501 -135s161.5 -47 251.5 -47c58 0 118.833 7.66699 182.5 23
s129.834 38.333 198.501 69v377h-295v98h405v-539z" />
    <glyph glyph-name="H" unicode="H" horiz-adv-x="1485" 
d="M164 0v1399h112v-647h930v647h113v-1399h-113v653h-930v-653h-112z" />
    <glyph glyph-name="I" unicode="I" horiz-adv-x="463" 
d="M170 0v1399h121v-1399h-121z" />
    <glyph glyph-name="J" unicode="J" horiz-adv-x="467" 
d="M178 0v1399h119v-1389c0 -145.333 -25.333 -251.333 -76 -318s-131 -100 -241 -100c-4 0 -10.667 0.333008 -20 1s-16.333 1 -21 1l-20 107c6 -0.666992 13 -1.16699 21 -1.5s19 -0.5 33 -0.5c76 0 129.167 21.833 159.5 65.5s45.5 122.167 45.5 235.5z" />
    <glyph glyph-name="K" unicode="K" horiz-adv-x="1110" 
d="M172 0v1399h113v-686l663 686h146l-664 -686l737 -713h-157l-725 702v-702h-113z" />
    <glyph glyph-name="L" unicode="L" horiz-adv-x="969" 
d="M170 0v1399h117v-1305h659v-94h-776z" />
    <glyph glyph-name="M" unicode="M" horiz-adv-x="1606" 
d="M164 0v1399h117l522 -645l520 645h119v-1399h-115v1235l-524 -651l-527 651v-1235h-112z" />
    <glyph glyph-name="N" unicode="N" horiz-adv-x="1581" 
d="M164 0v1399h117l1024 -1221v1221h112v-1399h-104l-1037 1237v-1237h-112z" />
    <glyph glyph-name="O" unicode="O" horiz-adv-x="1632" 
d="M205 700c0 -82 15.501 -161.5 46.501 -238.5s74.833 -144.833 131.5 -203.5c56.667 -57.333 123 -102 199 -134s154.333 -48 235 -48c83.333 0 162 15.5 236 46.5s140 76.167 198 135.5c58 58.667 102.333 126 133 202s46 156 46 240s-15.167 163.333 -45.5 238
s-74.833 141.667 -133.5 201c-58 58.667 -124.5 104 -199.5 136s-153.167 48 -234.5 48c-80.667 0 -158.334 -15.833 -233.001 -47.5s-141.667 -77.167 -201 -136.5c-57.333 -57.333 -101.333 -123.833 -132 -199.5s-46 -155.5 -46 -239.5zM82.001 705
c0 94 18.665 184.831 55.998 272.498s90.333 165.167 159 232.5c70.667 68.667 150.5 121 239.5 157s182.5 54 280.5 54c99.333 0 193.5 -18 282.5 -54s168.167 -88.333 237.5 -157c70.667 -69.333 124.167 -147.166 160.5 -233.499s54.5 -178.5 54.5 -276.5
c0 -73.333 -10.5 -144.333 -31.5 -213s-52.167 -132.667 -93.5 -192c-69.333 -102 -157.166 -180.833 -263.499 -236.5s-221.833 -83.5 -346.5 -83.5c-98.667 0 -193.167 18.333 -283.5 55s-169.166 88.667 -236.499 156c-70 70 -123.333 149.333 -160 238
s-55 182.334 -55 281.001z" />
    <glyph glyph-name="P" unicode="P" horiz-adv-x="1028" 
d="M276 1305v-557.001h213c120.667 0 209.667 22.833 267 68.5s86 116.834 86 213.501c0 90 -28.167 158.333 -84.5 205s-138.833 70 -247.5 70h-234zM164 1399l340 -0.000976562c152 0 266.833 -31.667 344.5 -95s116.5 -156.666 116.5 -279.999
c0 -113.333 -37.333 -203.833 -112 -271.5s-174.667 -101.5 -300 -101.5h-277v-651h-112v1399z" />
    <glyph glyph-name="Q" unicode="Q" horiz-adv-x="1632" 
d="M203 700c0 -82 15.502 -161.5 46.502 -238.5s74.833 -144.833 131.5 -203.5c56 -57.333 122.5 -102 199.5 -134s155.833 -48 236.5 -48c82.667 0 160.667 15.5 234 46.5s139.333 76.167 198 135.5c58 58.667 102.167 126 132.5 202s45.5 156 45.5 240
s-15 163.333 -45 238s-74.333 141.667 -133 201c-58 59.333 -124.333 104.833 -199 136.5s-152.334 47.5 -233.001 47.5s-158.334 -15.833 -233.001 -47.5s-141.667 -77.167 -201 -136.5c-58 -58 -102.5 -124.833 -133.5 -200.5s-46.5 -155.167 -46.5 -238.5zM721.002 -16
c-193.333 30 -348.501 111.168 -465.501 243.501s-175.5 291.5 -175.5 477.5c0 93.333 19 184.166 57 272.499s91.333 165.833 160 232.5c70.667 68.667 150.167 121 238.5 157s181.5 54 279.5 54c99.333 0 193.5 -18 282.5 -54s168.167 -88.333 237.5 -157
c71.333 -70 125.333 -148.167 162 -234.5s55 -178.166 55 -275.499c0 -187.333 -59.833 -347 -179.5 -479s-277.5 -211 -473.5 -237c84 -54 161.667 -94.833 233 -122.5s134.333 -41.5 189 -41.5c29.333 0 57.166 4.16699 83.499 12.5s52.5 21.166 78.5 38.499l20 -21
l-123 -145c-101.333 3.33301 -206.166 27.833 -314.499 73.5s-223.166 114.167 -344.499 205.5z" />
    <glyph glyph-name="R" unicode="R" horiz-adv-x="1147" 
d="M276 1305v-537.001h86c106.667 0 180.667 2.66699 222 8s76 14.333 104 27c51.333 22.667 89.833 54.334 115.5 95.001s38.5 91 38.5 151c0 81.333 -28.833 144.333 -86.5 189s-139.5 67 -245.5 67h-234zM164 1399h340c148.667 0 262.667 -30.167 342 -90.5
s119 -146.833 119 -259.5c0 -86 -22.167 -157.333 -66.5 -214s-111.166 -99.334 -200.499 -128.001c25.333 -14.667 48.333 -31.667 69 -51s39.334 -41.333 56.001 -66l385 -590h-127l-223 344c-44 67.333 -82 122.833 -114 166.5s-57.333 74.834 -76 93.501
c-24.667 24.667 -57.334 42.167 -98.001 52.5s-100.334 15.5 -179.001 15.5h-115v-672h-112v1399z" />
    <glyph glyph-name="S" unicode="S" horiz-adv-x="938" 
d="M823 1200c-58 39.333 -113.166 68.3379 -165.499 87.0049s-104.166 28 -155.499 28c-84.667 0 -154 -24.833 -208 -74.5s-81 -112.167 -81 -187.5c0 -61.333 17.333 -111.333 52 -150s109.334 -82.334 224.001 -131.001l30 -12
c129.333 -52.667 215.666 -103.334 258.999 -152.001c30 -32.667 52.833 -70 68.5 -112s23.5 -86.667 23.5 -134c0 -111.333 -38.667 -202.833 -116 -274.5s-176.333 -107.5 -297 -107.5c-60.667 0 -120.834 10.333 -180.501 31s-119.834 51.667 -180.501 93v136
c66 -51.333 128.5 -89.5 187.5 -114.5s116.167 -37.5 171.5 -37.5c91.333 0 163.666 25 216.999 75s80 118 80 204c0 63.333 -18.167 115.166 -54.5 155.499s-119.166 87.5 -248.499 141.5c-134 55.333 -225.667 111.166 -275 167.499s-74 128.166 -74 215.499
c0 108.667 37.5 197.5 112.5 266.5s172.833 103.5 293.5 103.5c54.667 0 108 -7.5 160 -22.5s104.333 -38.167 157 -69.5v-125z" />
    <glyph glyph-name="T" unicode="T" horiz-adv-x="1190" 
d="M535 0v1298h-521v101h1162v-101h-521v-1298h-120z" />
    <glyph glyph-name="U" unicode="U" horiz-adv-x="1460" 
d="M266 580c0 -150 42 -269.167 126 -357.5s196.333 -132.5 337 -132.5s253 44.167 337 132.5s126 207.5 126 357.5v819h117v-813c0 -188 -52.333 -337.167 -157 -447.5s-245.667 -165.5 -423 -165.5c-176.667 0 -317 55 -421 165s-156 259.333 -156 448v813h114v-819z" />
    <glyph glyph-name="V" unicode="V" horiz-adv-x="1114" 
d="M-45 1399h123l479 -1174l483 1174h119l-592 -1424h-18z" />
    <glyph glyph-name="W" unicode="W" horiz-adv-x="1896" 
d="M514 236l414 1163h41l426 -1163l411 1163h121l-524 -1424h-23l-430 1176l-426 -1176h-22l-535 1424h123z" />
    <glyph glyph-name="X" unicode="X" horiz-adv-x="1372" 
d="M-18 0l630 723l-592 676h146l516 -594l524 594h146l-596 -674l637 -725h-146l-561 643l-559 -643h-145z" />
    <glyph glyph-name="Y" unicode="Y" horiz-adv-x="1114" 
d="M500 0v750l-543 649h139l461 -553l461 553h139l-543 -649v-750h-114z" />
    <glyph glyph-name="Z" unicode="Z" horiz-adv-x="1280" 
d="M18 0v47l1051 1260h-991v92h1173v-43l-1046 -1258h1046v-98h-1233z" />
    <glyph glyph-name="bracketleft" unicode="[" horiz-adv-x="571" 
d="M215 -334h367v-98h-473v1831h473v-99h-367v-1634z" />
    <glyph glyph-name="backslash" unicode="\" horiz-adv-x="569" 
d="M479 -190l-594 1611h95l595 -1611h-96z" />
    <glyph glyph-name="bracketright" unicode="]" horiz-adv-x="571" 
d="M354 -334v1634h-364v99h471v-1831h-471v98h364z" />
    <glyph glyph-name="asciicircum" unicode="^" horiz-adv-x="2048" 
d="M1081 1458l541 -557h-125l-473 469l-475 -469h-125l539 557h118z" />
    <glyph glyph-name="underscore" unicode="_" 
d="M1024 -403v-80h-1024v80h1024z" />
    <glyph glyph-name="grave" unicode="`" 
d="M545 1055l-269 348h152l209 -348h-92z" />
    <glyph glyph-name="a" unicode="a" horiz-adv-x="844" 
d="M594 186l-0.00195312 288.999c-133.333 -2 -238.666 -26 -315.999 -72s-116 -106.667 -116 -182c0 -47.333 16 -84.666 48 -111.999s76 -41 132 -41c38 0 77.333 9.5 118 28.5s85.334 48.833 134.001 89.5zM595.998 89.999
c-51.333 -39.333 -99.168 -67.501 -143.501 -84.501s-90.833 -25.5 -139.5 -25.5c-76 0 -137.667 22 -185 66s-71 101 -71 171c0 102 46.167 182.333 138.5 241s225.166 91.667 398.499 99v98c0 69.333 -16.5 119.833 -49.5 151.5s-85.5 47.5 -157.5 47.5
c-44.667 0 -89.667 -9 -135 -27s-94.666 -46.667 -147.999 -86v101c52 34.667 101.833 60.334 149.5 77.001s94.834 25 141.501 25c106 0 182.667 -24.5 230 -73.5s71 -128.833 71 -239.5v-484c0 -20 2.66699 -34.833 8 -44.5s13.666 -14.5 24.999 -14.5
c16 0 43.667 17.333 83 52c9.33301 8.66699 16.333 15 21 19l1 -93c-30 -28 -57.667 -49 -83 -63s-47.666 -21 -66.999 -21c-29.333 0 -50.833 8.5 -64.5 25.5s-21.5 44.5 -23.5 82.5z" />
    <glyph glyph-name="b" unicode="b" horiz-adv-x="1010" 
d="M231 158c28.667 -24.667 61.833 -43.167 99.5 -55.5s79.834 -18.5 126.501 -18.5c110.667 0 201.167 37 271.5 111s105.5 170 105.5 288c0 107.333 -29.333 195.333 -88 264s-133.334 103 -224.001 103c-54.667 0 -106.167 -13.667 -154.5 -41
s-93.833 -68.333 -136.5 -123v-528zM132.999 53l-0.000976562 1346h98v-594c50 48.667 101.167 84.334 153.5 107.001s109.833 34 172.5 34c114.667 0 208.834 -42.667 282.501 -128s110.5 -195 110.5 -329c0 -150.667 -46.667 -272.834 -140 -366.501
s-215.333 -140.5 -366 -140.5c-48 0 -97.5 5.83301 -148.5 17.5s-105.167 29.5 -162.5 53.5z" />
    <glyph glyph-name="c" unicode="c" horiz-adv-x="825" 
d="M788 37c-38 -18.667 -76.166 -32.501 -114.499 -41.501s-77.833 -13.5 -118.5 -13.5c-142 0 -258.667 45 -350 135s-137 205.333 -137 346c0 136.667 47 251 141 343s212 138 354 138c34.667 0 69.167 -3.33301 103.5 -10s68.833 -17 103.5 -31v-115
c-35.333 20.667 -71 35.834 -107 45.501s-74 14.5 -114 14.5c-102.667 0 -189.834 -37.5 -261.501 -112.5s-107.5 -166.5 -107.5 -274.5c0 -108.667 35.667 -200 107 -274s158.666 -111 261.999 -111c38.667 0 77.834 6.33301 117.501 19s80.167 31.667 121.5 57v-115z" />
    <glyph glyph-name="d" unicode="d" horiz-adv-x="1006" 
d="M772 180l-0.000976562 567.999c-34 35.333 -71 61.5 -111 78.5s-85.667 25.5 -137 25.5c-102.667 0 -186.334 -35.667 -251.001 -107s-97 -164.666 -97 -279.999s32.333 -208.666 97 -279.999s148.334 -107 251.001 -107c52.667 0 98.834 8.16699 138.501 24.5
s76.167 42.166 109.5 77.499zM771.999 67.999c-37.333 -28.667 -77.333 -49.832 -120 -63.499s-89.334 -20.5 -140.001 -20.5c-134.667 0 -243.834 44.167 -327.501 132.5s-125.5 203.833 -125.5 346.5s41.833 258.167 125.5 346.5s192.834 132.5 327.501 132.5
c50.667 0 97.334 -6.83301 140.001 -20.5s82.667 -34.834 120 -63.501v541h100v-1399h-100v68z" />
    <glyph glyph-name="e" unicode="e" horiz-adv-x="979" 
d="M883 102c-60 -41.333 -118.667 -72 -176 -92s-116.333 -30 -177 -30c-138 0 -248.833 45.333 -332.5 136s-125.5 211 -125.5 361c0 140 39.5 252.5 118.5 337.5s182.833 127.5 311.5 127.5c119.333 0 215.666 -40.333 288.999 -121s110 -187.667 110 -321v-4h-721v-11
c0 -120.667 32.333 -218.334 97 -293.001s148.334 -112 251.001 -112c61.333 0 120.333 10.833 177 32.5s116 55.834 178 102.501v-113zM193 584l587.002 0.000976562c-10.667 81.333 -42.334 146.666 -95.001 195.999s-116.334 74 -191.001 74c-76.667 0 -143 -25 -199 -75
s-90 -115 -102 -195z" />
    <glyph glyph-name="f" unicode="f" horiz-adv-x="420" 
d="M139 0v837.999h-159v86h159v102c0 134 25.5 232.333 76.5 295s130.833 94 239.5 94c14 0 29.167 -1 45.5 -3s34.5 -5 54.5 -9v-88c-15.333 3.33301 -30.333 5.83301 -45 7.5s-29 2.5 -43 2.5c-79.333 0 -136.333 -20.667 -171 -62s-52 -110.666 -52 -207.999v-131h170
v-86h-170v-838h-105z" />
    <glyph glyph-name="g" unicode="g" horiz-adv-x="858" 
d="M430 -45c-105.333 0 -183.499 -14.668 -234.499 -44.001s-76.5 -74 -76.5 -134c0 -50.667 26.5 -90 79.5 -118s127.5 -42 223.5 -42c105.333 0 185.166 14.833 239.499 44.5s81.5 73.5 81.5 131.5c0 54.667 -25.5 95.334 -76.5 122.001s-129.833 40 -236.5 40z
M180.001 593.999c0 -66 23.5 -122.169 70.5 -168.502s104.167 -69.5 171.5 -69.5c66.667 0 123.334 23.333 170.001 70s70 103.334 70 170.001s-23.333 123.334 -70 170.001s-103.334 70 -170.001 70s-123.667 -23.667 -171 -71s-71 -104.333 -71 -171zM307.001 288.997
c-75.333 29.333 -132.331 70.0039 -170.998 122.004s-58 113.667 -58 185c0 57.333 14.333 110.166 43 158.499s69.667 89.166 123 122.499c27.333 16.667 58.666 28.667 93.999 36s90.666 11 165.999 11h344v-88h-197c38 -35.333 66 -72.333 84 -111s27 -81.667 27 -129
c0 -82.667 -24.167 -150.667 -72.5 -204s-123.5 -94.666 -225.5 -123.999c-16 -4.66699 -38.667 -10.667 -68 -18c-106.667 -26.667 -160 -64.334 -160 -113.001c0 -45.333 73.333 -75 220 -89l11 -1c144 -14 242.5 -39.333 295.5 -76s79.5 -94 79.5 -172
c0 -89.333 -35 -156 -105 -200s-176.333 -66 -319 -66c-128 0 -225.833 21.167 -293.5 63.5s-101.5 103.166 -101.5 182.499c0 60 21.833 110.167 65.5 150.5s104.167 65.833 181.5 76.5c-40.667 9.33301 -72 25.166 -94 47.499s-33 49.5 -33 81.5
c0 34.667 14.333 65.5 43 92.5s69 47.5 121 61.5z" />
    <glyph glyph-name="h" unicode="h" horiz-adv-x="997" 
d="M131 0l0.00195312 1399h100v-623c44.667 54.667 93.667 95.667 147 123s111.666 41 174.999 41c104.667 0 185.167 -32.667 241.5 -98s84.5 -158.333 84.5 -279v-563h-103v514c0 112 -19.167 195.333 -57.5 250s-96.833 82 -175.5 82c-64 0 -122.333 -16.5 -175 -49.5
s-98.334 -81.5 -137.001 -145.5v-651h-100z" />
    <glyph glyph-name="i" unicode="i" horiz-adv-x="365" 
d="M131 1229v170h105v-170h-105zM131 0v924h105v-924h-105z" />
    <glyph glyph-name="j" unicode="j" horiz-adv-x="371" 
d="M137 1229v170h103v-170h-103zM137 -106v1030h103v-1039c0 -115.333 -21.833 -200.166 -65.5 -254.499s-115.5 -86.833 -215.5 -97.5l-25 90c76.667 6.66699 129.667 28.834 159 66.501s44 105.834 44 204.501z" />
    <glyph glyph-name="k" unicode="k" horiz-adv-x="844" 
d="M737 0l-493 492l432 432h137l-432 -428l496 -496h-140zM133 0v1399h103v-1399h-103z" />
    <glyph glyph-name="l" unicode="l" horiz-adv-x="365" 
d="M131 0v1399h105v-1399h-105z" />
    <glyph glyph-name="m" unicode="m" horiz-adv-x="1583" 
d="M123 0v924.001h102v-148c42.667 55.333 89.5 96.5 140.5 123.5s106.5 40.5 166.5 40.5c69.333 0 126.666 -14.833 171.999 -44.5s83.666 -77.5 114.999 -143.5c51.333 64.667 103.666 112.167 156.999 142.5s111.666 45.5 174.999 45.5
c100.667 0 178.334 -32.667 233.001 -98s82 -158.333 82 -279v-563h-104v514c0 111.333 -18.5 194.5 -55.5 249.5s-92.833 82.5 -167.5 82.5c-61.333 0 -116.666 -16.5 -165.999 -49.5s-91.666 -81.5 -126.999 -145.5v-651h-103v514c0 111.333 -18.667 194.5 -56 249.5
s-93.666 82.5 -168.999 82.5c-60 0 -114.5 -16.333 -163.5 -49s-92.167 -81.334 -129.5 -146.001v-651h-102z" />
    <glyph glyph-name="n" unicode="n" horiz-adv-x="991" 
d="M123 0l-0.000976562 924.001h102v-148c44.667 55.333 93.5 96.5 146.5 123.5s110.833 40.5 173.5 40.5c104.667 0 185.334 -32.667 242.001 -98s85 -158.333 85 -279v-563h-102v514c0 111.333 -19.5 194.5 -58.5 249.5s-97.833 82.5 -176.5 82.5
c-64 0 -121.833 -16.333 -173.5 -49s-97.167 -81.334 -136.5 -146.001v-651h-102z" />
    <glyph glyph-name="o" unicode="o" horiz-adv-x="1083" 
d="M174 461c0 -107.333 36 -198.333 108 -273s159 -112 261 -112c101.333 0 187.666 37.333 258.999 112s107 165.667 107 273c0 108 -35.5 199.5 -106.5 274.5s-157.5 112.5 -259.5 112.5c-103.333 0 -190.666 -37.5 -261.999 -112.5s-107 -166.5 -107 -274.5zM61 463
c0 134 46.667 247.667 140 341s207.333 140 342 140c133.333 0 246.833 -46.833 340.5 -140.5s140.5 -207.167 140.5 -340.5c0 -63.333 -12.5 -124.833 -37.5 -184.5s-60.167 -112.167 -105.5 -157.5c-46 -46 -97.667 -80.667 -155 -104s-118.333 -35 -183 -35
c-134.667 0 -248.667 46.5 -342 139.5s-140 206.833 -140 341.5z" />
    <glyph glyph-name="p" unicode="p" horiz-adv-x="1006" 
d="M231 743v-565.002c34 -35.333 71.167 -61.5 111.5 -78.5s85.833 -25.5 136.5 -25.5c103.333 0 187.5 35.833 252.5 107.5s97.5 164.834 97.5 279.501s-32.5 207.834 -97.5 279.501s-149.167 107.5 -252.5 107.5c-51.333 0 -97 -8.5 -137 -25.5s-77 -43.5 -111 -79.5z
M133 -465.002l-0.00195312 1389h98v-66c38 28.667 78.333 49.834 121 63.501s89.334 20.5 140.001 20.5c134.667 0 243.667 -44.167 327 -132.5s125 -203.833 125 -346.5s-41.667 -258.167 -125 -346.5s-192.333 -132.5 -327 -132.5c-52 0 -99.167 6.66699 -141.5 20
s-82.166 34 -119.499 62v-531h-98z" />
    <glyph glyph-name="q" unicode="q" horiz-adv-x="1006" 
d="M772 178v564.998c-34 36 -71 62.5 -111 79.5s-85.667 25.5 -137 25.5c-102.667 0 -186.334 -35.667 -251.001 -107s-97 -164.666 -97 -279.999s32.333 -208.666 97 -279.999s148.334 -107 251.001 -107c51.333 0 97 8.33301 137 25s77 43 111 79zM772 65.998
c-36.667 -28 -76.168 -48.666 -118.501 -61.999s-89.5 -20 -141.5 -20c-134.667 0 -243.834 44.167 -327.501 132.5s-125.5 203.833 -125.5 346.5s41.833 258.167 125.5 346.5s192.834 132.5 327.501 132.5c50.667 0 97.334 -6.83301 140.001 -20.5
s82.667 -34.834 120 -63.501v64l100 2v-1389h-100v531z" />
    <glyph glyph-name="r" unicode="r" horiz-adv-x="678" 
d="M137 0l0.00195312 923.999h103v-228c57.333 88 109.666 150.667 156.999 188s96.666 56 147.999 56c28 0 55.167 -5.66699 81.5 -17s53.833 -29 82.5 -53l-56 -98c-28 22.667 -53.5 39.334 -76.5 50.001s-45.167 16 -66.5 16c-41.333 0 -83.333 -20 -126 -60
s-90.667 -104.667 -144 -194v-584h-103z" />
    <glyph glyph-name="s" unicode="s" horiz-adv-x="711" 
d="M70 168c46.667 -31.333 92.667 -54.4951 138 -69.4951s91.333 -22.5 138 -22.5c59.333 0 106 14 140 42s51 66.333 51 115c0 71.333 -62 129.666 -186 174.999l-75 28c-68 26.667 -119 61.167 -153 103.5s-51 92.5 -51 150.5c0 74.667 27.167 135.667 81.5 183
s124.833 71 211.5 71c39.333 0 79.833 -6.33301 121.5 -19s84.834 -32.334 129.501 -59.001v-106c-46.667 30 -91.334 52.5 -134.001 67.5s-84 22.5 -124 22.5c-54.667 0 -99.667 -14.833 -135 -44.5s-53 -67.5 -53 -113.5c0 -40.667 16.167 -74.834 48.5 -102.501
s92.5 -56.834 180.5 -87.501c93.333 -32.667 157.333 -68.167 192 -106.5s52 -88.833 52 -151.5c0 -82 -27.167 -146.5 -81.5 -193.5s-128.833 -70.5 -223.5 -70.5c-48 0 -93.833 6.66699 -137.5 20s-87.167 33.666 -130.5 60.999v107z" />
    <glyph glyph-name="t" unicode="t" horiz-adv-x="541" 
d="M270 227c0 -62 8.49902 -103 25.499 -123s47.5 -30 91.5 -30c22.667 0 46.334 3.83301 71.001 11.5s52.334 19.5 83.001 35.5v-101c-28.667 -12.667 -56.834 -22.167 -84.501 -28.5s-55.5 -9.5 -83.5 -9.5c-76.667 0 -130.667 18.333 -162 55s-47 100.667 -47 192v609
h-197v86h201v211l78 90h24v-301h248v-86h-248v-611z" />
    <glyph glyph-name="u" unicode="u" horiz-adv-x="991" 
d="M766 143c-44 -54 -92.5 -94.334 -145.5 -121.001s-111.167 -40 -174.5 -40c-104.667 0 -185.334 32.333 -242.001 97s-85 157 -85 277v568h102v-518c0 -111.333 19.5 -194.166 58.5 -248.499s98.167 -81.5 177.5 -81.5c64 0 121.833 16 173.5 48s96.834 80 135.501 144
v656h102v-924h-102v143z" />
    <glyph glyph-name="v" unicode="v" horiz-adv-x="864" 
d="M403 -18l-413 942h114l336 -770l320 770h106l-393 -942h-70z" />
    <glyph glyph-name="w" unicode="w" horiz-adv-x="1466" 
d="M381 -18l-391 942h108l305 -758l295 758h58l274 -758l324 758h112l-413 -942h-58l-270 751l-289 -751h-55z" />
    <glyph glyph-name="x" unicode="x" horiz-adv-x="874" 
d="M-6 0l371 471l-363 453h125l305 -379l303 379h119l-356 -455l381 -469h-129l-318 395l-321 -395h-117z" />
    <glyph glyph-name="y" unicode="y" horiz-adv-x="864" 
d="M397 180l-387 744h115l328 -629l307 629h106l-680 -1389h-104z" />
    <glyph glyph-name="z" unicode="z" horiz-adv-x="844" 
d="M23 0v39l604 786h-561v99h731v-41l-604 -787h604v-96h-774z" />
    <glyph glyph-name="braceleft" unicode="{" 
d="M848 1389h-36.998c-90 0 -150.667 -17.167 -182 -51.5s-47 -105.5 -47 -213.5v-241c0 -116.667 -14.333 -199.334 -43 -248.001s-79.334 -83.667 -152.001 -105c72.667 -21.333 123.334 -56 152.001 -104s43 -130.667 43 -248v-241c0 -108 15.5 -178.833 46.5 -212.5
s91.167 -50.5 180.5 -50.5h39v-88h-43c-126 0 -211.833 24.833 -257.5 74.5s-68.5 149.834 -68.5 300.501v240c0 105.333 -19.333 179.333 -58 222s-105.334 64 -200.001 64c-4.66699 0 -11.834 -0.333008 -21.501 -1s-17.5 -1 -23.5 -1v90
c6.66699 -0.666992 13.5 -1.16699 20.5 -1.5s16.5 -0.5 28.5 -0.5c92.667 0 158.167 21.5 196.5 64.5s57.5 117.167 57.5 222.5v240c0 151.333 22.833 252 68.5 302s131.5 75 257.5 75h43v-88z" />
    <glyph glyph-name="bar" unicode="|" 
d="M557 1565v-2048h-90v2048h90z" />
    <glyph glyph-name="braceright" unicode="}" 
d="M545 1100v-240c0 -105.333 19.333 -179.5 58 -222.5s105.334 -64.5 200.001 -64.5c4.66699 0 11.834 0.333008 21.501 1s17.5 1 23.5 1v-90c-6 0 -13.833 0.333008 -23.5 1s-16.834 1 -21.501 1c-94.667 0 -161.334 -21.333 -200.001 -64s-58 -116.667 -58 -222v-240
c0 -150.667 -22.833 -250.834 -68.5 -300.501s-131.5 -74.5 -257.5 -74.5h-43v88h39c89.333 0 149.5 16.833 180.5 50.5s46.5 104.5 46.5 212.5v241c0 116 14.5 198.333 43.5 247s80.167 83.667 153.5 105c-73.333 21.333 -124.5 56.333 -153.5 105
s-43.5 131.334 -43.5 248.001v241c0 108 -15.667 179.167 -47 213.5s-92 51.5 -182 51.5h-37v88h43c126 0 211.833 -25 257.5 -75s68.5 -150.667 68.5 -302z" />
    <glyph glyph-name="asciitilde" unicode="~" horiz-adv-x="1706" 
d="M1530 647c-70.667 -49.333 -138 -86.168 -202 -110.501s-125.667 -36.5 -185 -36.5c-66 0 -154.667 20.333 -266 61c-10.667 4 -18 6.66699 -22 8c-8 2.66699 -19 6.66699 -33 12c-111.333 40 -197 60 -257 60c-55.333 0 -113.666 -12.5 -174.999 -37.5
s-132 -65.833 -212 -122.5v92c70 49.333 137 86 201 110s126 36 186 36c66.667 0 157 -20.333 271 -61c8 -3.33301 14.333 -5.66602 19 -6.99902l27 -10c112 -40.667 199 -61 261 -61c55.333 0 113.666 12.5 174.999 37.5s132 65.5 212 121.5v-92z" />
    <glyph glyph-name="Euro" horiz-adv-x="1034" 
d="M963 76c-42.667 -34.667 -88.1719 -60.1719 -136.505 -76.5049s-106.833 -24.5 -175.5 -24.5c-120.667 0 -224.167 50 -310.5 150s-141.166 234.333 -164.499 403h-147l26 82h113c0 8.66699 -0.333008 22.834 -1 42.501s-1 34.834 -1 45.501s0.333008 26.834 1 48.501
s1 36.5 1 44.5h-139l26 81h123c24 166.667 79.333 299.834 166 399.501s189 149.5 307 149.5c62 0 118.333 -8.16699 169 -24.5s98.334 -41.5 143.001 -75.5v-119c-48 40 -97 69.5 -147 88.5s-106.333 28.5 -169 28.5c-89.333 0 -166.166 -40.5 -230.499 -121.5
s-106.833 -189.5 -127.5 -325.5h569l-27 -81h-552c-2 -26 -3.33301 -45.333 -4 -58s-1 -24.334 -1 -35.001c0 -10 0.333008 -21.167 1 -33.5s2 -30.5 4 -54.5h495l-26 -82h-459c20.667 -135.333 63.334 -244.166 128.001 -326.499s141.334 -123.5 230.001 -123.5
c62.667 0 119 9.33301 169 28s99 48.334 147 89.001v-119z" />
    <glyph glyph-name="Euro" unicode="&#x20ac;" horiz-adv-x="1034" 
d="M963 76c-42.667 -34.667 -88.1719 -60.1719 -136.505 -76.5049s-106.833 -24.5 -175.5 -24.5c-120.667 0 -224.167 50 -310.5 150s-141.166 234.333 -164.499 403h-147l26 82h113c0 8.66699 -0.333008 22.834 -1 42.501s-1 34.834 -1 45.501s0.333008 26.834 1 48.501
s1 36.5 1 44.5h-139l26 81h123c24 166.667 79.333 299.834 166 399.501s189 149.5 307 149.5c62 0 118.333 -8.16699 169 -24.5s98.334 -41.5 143.001 -75.5v-119c-48 40 -97 69.5 -147 88.5s-106.333 28.5 -169 28.5c-89.333 0 -166.166 -40.5 -230.499 -121.5
s-106.833 -189.5 -127.5 -325.5h569l-27 -81h-552c-2 -26 -3.33301 -45.333 -4 -58s-1 -24.334 -1 -35.001c0 -10 0.333008 -21.167 1 -33.5s2 -30.5 4 -54.5h495l-26 -82h-459c20.667 -135.333 63.334 -244.166 128.001 -326.499s141.334 -123.5 230.001 -123.5
c62.667 0 119 9.33301 169 28s99 48.334 147 89.001v-119z" />
    <glyph glyph-name="nonbreakingspace" unicode="&#xa0;" horiz-adv-x="1034" 
 />
    <glyph glyph-name="exclamdown" unicode="&#xa1;" horiz-adv-x="516" 
d="M291 1001l31 -1001h-125l28 1001h66zM326 1399v-205h-133v205h133z" />
    <glyph glyph-name="cent" unicode="&#xa2;" horiz-adv-x="1034" 
d="M322 190l251 680h-4c-108 0 -198.167 -37 -270.5 -111s-108.5 -166 -108.5 -276c0 -56.667 11 -109.5 33 -158.5s55 -93.833 99 -134.5zM799 57c-37.333 -18.667 -75.999 -32.5 -115.999 -41.5s-82 -13.5 -126 -13.5c-32.667 0 -65.5 3.33301 -98.5 10
s-66.5 17 -100.5 31l-116 -315h-90l129 356c-67.333 52.667 -118 112.834 -152 180.501s-51 141.167 -51 220.5c0 137.333 47 251.666 141 342.999s212.667 137 356 137h33l105 286h90l-108 -299c14.667 -2 29.167 -5.16699 43.5 -9.5s28.166 -9.83301 41.499 -16.5v-115
c-20.667 12 -41 21.833 -61 29.5s-40 13.5 -60 17.5l-266 -717c26 -14 52 -24.667 78 -32s52.667 -11 80 -11c38.667 0 78.5 5.83301 119.5 17.5s83.833 29.167 128.5 52.5v-111z" />
    <glyph glyph-name="sterling" unicode="&#xa3;" horiz-adv-x="1034" 
d="M121 -10l166 643.001h-172v104h200c62.667 224.667 141.167 395.5 235.5 512.5s200.166 175.5 317.499 175.5c12.667 0 26.834 -1 42.501 -3s34.834 -5.66699 57.501 -11l58 -102c-28.667 4.66699 -54.834 8.5 -78.501 11.5s-41.167 4.5 -52.5 4.5
c-106 0 -197 -48 -273 -144s-140 -244 -192 -444h205v-104h-242l-135 -516c38 4 72.667 7 104 9s58 3 80 3c61.333 0 135 -6.16699 221 -18.5s142 -18.5 168 -18.5c34.667 0 68.834 4.33301 102.501 13s67.834 22 102.501 40v-112c-30 -16.667 -61 -29 -93 -37
s-65.667 -12 -101 -12c-34.667 0 -98.834 6.5 -192.501 19.5s-170.167 19.5 -229.5 19.5c-45.333 0 -93.333 -2.83301 -144 -8.5s-102.334 -13.834 -155.001 -24.501z" />
    <glyph glyph-name="currency" unicode="&#xa4;" horiz-adv-x="1034" 
d="M963 76c-42.667 -34.667 -88.1719 -60.1719 -136.505 -76.5049s-106.833 -24.5 -175.5 -24.5c-120.667 0 -224.167 50 -310.5 150s-141.166 234.333 -164.499 403h-147l26 82h113c0 8.66699 -0.333008 22.834 -1 42.501s-1 34.834 -1 45.501s0.333008 26.834 1 48.501
s1 36.5 1 44.5h-139l26 81h123c24 166.667 79.333 299.834 166 399.501s189 149.5 307 149.5c62 0 118.333 -8.16699 169 -24.5s98.334 -41.5 143.001 -75.5v-119c-48 40 -97 69.5 -147 88.5s-106.333 28.5 -169 28.5c-89.333 0 -166.166 -40.5 -230.499 -121.5
s-106.833 -189.5 -127.5 -325.5h569l-27 -81h-552c-2 -26 -3.33301 -45.333 -4 -58s-1 -24.334 -1 -35.001c0 -10 0.333008 -21.167 1 -33.5s2 -30.5 4 -54.5h495l-26 -82h-459c20.667 -135.333 63.334 -244.166 128.001 -326.499s141.334 -123.5 230.001 -123.5
c62.667 0 119 9.33301 169 28s99 48.334 147 89.001v-119z" />
    <glyph glyph-name="yen" unicode="&#xa5;" horiz-adv-x="1067" 
d="M477 0v668h-434v82h434l-139 178h-295v84h229l-307 387h131l436 -557l439 557h129l-303 -387h225v-84h-295l-139 -178h434v-82h-434v-668h-111z" />
    <glyph glyph-name="brokenbar" unicode="&#xa6;" 
d="M557 408v-758h-90v758h90zM557 1432v-758h-90v758h90z" />
    <glyph glyph-name="section" unicode="&#xa7;" horiz-adv-x="1034" 
d="M420 453l190.001 -88c65.333 26.667 113.166 57 143.499 91s45.5 74.667 45.5 122c0 42.667 -13.833 79.167 -41.5 109.5s-75.5 61.166 -143.5 92.499l-190 86c-67.333 -28.667 -116 -59.667 -146 -93s-45 -72.666 -45 -117.999c0 -42 14 -78.333 42 -109
s76.333 -61.667 145 -93zM199.001 -6c50 -34.667 100.332 -60.5 150.999 -77.5s102 -25.5 154 -25.5c66.667 0 118.834 15.5 156.501 46.5s56.5 73.833 56.5 128.5c0 42.667 -12.333 78.834 -37 108.501s-69.667 60.167 -135 91.5l-142 68
c-117.333 57.333 -193 108 -227 152s-51 100.333 -51 169c0 60.667 17 113 51 157s85.333 80 154 108c-44.667 27.333 -77.667 59.666 -99 96.999s-32 81.333 -32 132c0 86 29.167 153.167 87.5 201.5s139.5 72.5 243.5 72.5c54.667 0 104.667 -5.66699 150 -17
s89.666 -29.333 132.999 -54v-123c-43.333 28.667 -89.166 50.5 -137.499 65.5s-97.5 22.5 -147.5 22.5c-64 0 -115.167 -14.167 -153.5 -42.5s-57.5 -66.166 -57.5 -113.499c0 -40.667 12 -75 36 -103s69.333 -58.333 136 -91l142 -70
c116.667 -58 191.834 -108.167 225.501 -150.5s50.5 -95.833 50.5 -160.5s-16.667 -119 -50 -163s-85 -80.667 -155 -110c44 -27.333 77 -61.5 99 -102.5s33 -87.833 33 -140.5c0 -86 -30.5 -155 -91.5 -207s-142.5 -78 -244.5 -78
c-56.667 0 -108.834 7.16699 -156.501 21.5s-95.167 37.166 -142.5 68.499v119z" />
    <glyph glyph-name="dieresis" unicode="&#xa8;" 
d="M602 1130v164h141v-164h-141zM281 1130v164h141v-164h-141z" />
    <glyph glyph-name="copyright" unicode="&#xa9;" horiz-adv-x="1706" 
d="M1081 918c-13.333 54 -39.832 96.167 -79.499 126.5s-88.834 45.5 -147.501 45.5c-84 0 -149.333 -32.5 -196 -97.5s-70 -156.167 -70 -273.5c0 -112.667 23.833 -201.667 71.5 -267s112.5 -98 194.5 -98c60.667 0 112.667 17.5 156 52.5s71.333 81.833 84 140.5h102
c-7.33301 -82 -43.333 -149 -108 -201s-144.667 -78 -240 -78c-115.333 0 -207 41.167 -275 123.5s-102 193.5 -102 333.5c0 136.667 35.667 246 107 328s165.333 123 282 123c88 0 162.167 -24 222.5 -72s94.833 -110 103.5 -186h-105zM1511 721
c0 88.667 -16.335 172.84 -49.002 252.507s-79.667 150.5 -141 212.5c-63.333 63.333 -135 111.5 -215 144.5s-164.667 49.5 -254 49.5c-88.667 0 -172.5 -16.333 -251.5 -49s-148.833 -79.667 -209.5 -141c-63.333 -64.667 -111.833 -137.334 -145.5 -218.001
s-50.5 -164.334 -50.5 -251.001s16.667 -169.834 50 -249.501s81.333 -150.834 144 -213.501s133.834 -110.834 213.501 -144.501s162.834 -50.5 249.501 -50.5s170.5 17 251.5 51s153.5 82.667 217.5 146c62 61.333 109.167 131.166 141.5 209.499
s48.5 162.166 48.5 251.499zM851.999 1452.01c99.333 0 193.502 -18.3301 282.502 -54.9971s168.167 -90 237.5 -160c68.667 -68 121 -146.333 157 -235s54 -182.334 54 -281.001c0 -100 -17.833 -193.333 -53.5 -280s-88.167 -164 -157.5 -232
c-71.333 -70.667 -151.833 -124.834 -241.5 -162.501s-182.5 -56.5 -278.5 -56.5c-96.667 0 -189 18.5 -277 55.5s-167 90.833 -237 161.5c-70 69.333 -123.333 148 -160 236s-55 180.667 -55 278c0 96.667 18.667 189.667 56 279s91 169.666 161 240.999
c67.333 68.667 144.666 121 231.999 157s180.666 54 279.999 54z" />
    <glyph glyph-name="ordfeminine" unicode="&#xaa;" horiz-adv-x="633" 
d="M446 883l0.000976562 200c-99.333 -0.666992 -178.333 -17 -237 -49s-88 -74.333 -88 -127c0 -33.333 12 -59.666 36 -78.999s57 -29 99 -29c29.333 0 59.166 6.66699 89.499 20s63.833 34.666 100.5 63.999zM446.001 815c-38 -27.333 -73.6689 -47.167 -107.002 -59.5
s-67.666 -18.5 -102.999 -18.5c-57.333 0 -103.833 15.5 -139.5 46.5s-53.5 70.833 -53.5 119.5c0 72 34.833 128.667 104.5 170s169.167 64 298.5 68v69c0 48.667 -12.333 84.167 -37 106.5s-64 33.5 -118 33.5c-34.667 0 -69 -6.33301 -103 -19s-70.667 -33 -110 -61v71
c38.667 24.667 76 42.834 112 54.501s71.667 17.5 107 17.5c78.667 0 135.834 -17.333 171.501 -52s53.5 -90.334 53.5 -167.001v-340c0 -14 2 -24.333 6 -31s10.333 -10 19 -10c12 0 31.333 11.667 58 35l19 16l1 -67c-22 -18.667 -42.5 -33 -61.5 -43s-35.5 -15 -49.5 -15
c-22 0 -38.167 5.83301 -48.5 17.5s-16.833 31.167 -19.5 58.5z" />
    <glyph glyph-name="guillemotleft" unicode="&#xab;" horiz-adv-x="854" 
d="M778 774l-252 -313l252 -311h-129l-252 311l252 313h129zM455 774l-252 -313l252 -311h-129l-250 311l250 313h129z" />
    <glyph glyph-name="logicalnot" unicode="&#xac;" horiz-adv-x="1706" 
d="M1452 856v-502h-78v420h-1120v82h1198z" />
    <glyph glyph-name="sfthyphen" unicode="&#xad;" horiz-adv-x="682" 
d="M96 414v96h492v-96h-492z" />
    <glyph glyph-name="registered" unicode="&#xae;" horiz-adv-x="1706" 
d="M852 1077h-168v-313h168c96.667 0 163.167 12 199.5 36s54.5 66 54.5 126c0 52 -20.5 90.167 -61.5 114.5s-105.167 36.5 -192.5 36.5zM874 1155c120 0 208.167 -18.833 264.5 -56.5s84.5 -96.5 84.5 -176.5c0 -59.333 -18.5 -109 -55.5 -149s-86.167 -63.667 -147.5 -71
l190 -393h-131l-182 377h-213v-377h-115v846h305zM1511 721c0 88.667 -16.335 172.84 -49.002 252.507s-79.667 150.5 -141 212.5c-63.333 63.333 -135 111.5 -215 144.5s-164.667 49.5 -254 49.5c-88.667 0 -172.5 -16.333 -251.5 -49s-148.833 -79.667 -209.5 -141
c-63.333 -64.667 -111.833 -137.334 -145.5 -218.001s-50.5 -164.334 -50.5 -251.001s16.667 -169.834 50 -249.501s81.333 -150.834 144 -213.501s133.834 -110.834 213.501 -144.501s162.834 -50.5 249.501 -50.5s170.5 17 251.5 51s153.5 82.667 217.5 146
c62 61.333 109.167 131.166 141.5 209.499s48.5 162.166 48.5 251.499zM851.998 1452.01c99.333 0 193.502 -18.3301 282.502 -54.9971s168.167 -90 237.5 -160c68.667 -68 121 -146.333 157 -235s54 -182.334 54 -281.001c0 -100 -17.833 -193.333 -53.5 -280
s-88.167 -164 -157.5 -232c-71.333 -70.667 -151.833 -124.834 -241.5 -162.501s-182.5 -56.5 -278.5 -56.5c-96.667 0 -189 18.5 -277 55.5s-167 90.833 -237 161.5c-70 69.333 -123.333 148 -160 236s-55 180.667 -55 278c0 96.667 18.667 189.667 56 279
s91 169.666 161 240.999c67.333 68.667 144.666 121 231.999 157s180.666 54 279.999 54z" />
    <glyph glyph-name="macron" unicode="&#xaf;" 
d="M256 1153v117h512v-117h-512z" />
    <glyph glyph-name="degree" unicode="&#xb0;" horiz-adv-x="674" 
d="M551 1176c0 58 -21.0029 107.999 -63.0029 149.999s-92 63 -150 63c-59.333 0 -109.666 -20.667 -150.999 -62s-62 -91.666 -62 -150.999s20.833 -109.666 62.5 -150.999s91.834 -62 150.501 -62s108.834 20.667 150.501 62s62.5 91.666 62.5 150.999zM337.997 1450
c74.667 0 138.668 -26.834 192.001 -80.501s80 -118.167 80 -193.5c0 -76 -26.667 -140.5 -80 -193.5s-118 -79.5 -194 -79.5c-76.667 0 -141.334 26.333 -194.001 79s-79 117.334 -79 194.001c0 76 26.833 140.667 80.5 194s118.5 80 194.5 80z" />
    <glyph glyph-name="plusminus" unicode="&#xb1;" horiz-adv-x="1706" 
d="M1452 141v-82h-1198v82h1198zM893 1161v-354h559v-80h-559v-352h-80v352h-559v80h559v354h80z" />
    <glyph glyph-name="twosuperior" unicode="&#xb2;" horiz-adv-x="682" 
d="M55 559v10c138 125.333 243.167 239.333 315.5 342s108.5 188.667 108.5 258c0 55.333 -19.833 100.333 -59.5 135s-91.5 52 -155.5 52c-30.667 0 -62 -7.33301 -94 -22s-65.333 -36.667 -100 -66v69c32.667 26 66.167 45.167 100.5 57.5s70.5 18.5 108.5 18.5
c80 0 145.333 -23 196 -69s76 -105.667 76 -179c0 -65.333 -27.833 -142 -83.5 -230s-142.5 -192 -260.5 -312h432v-64h-584z" />
    <glyph glyph-name="threesuperior" unicode="&#xb3;" horiz-adv-x="682" 
d="M63 590l0.00195312 65.001c33.333 -16.667 66.166 -29 98.499 -37s65.166 -12 98.499 -12c70 0 125.333 16.5 166 49.5s61 77.167 61 132.5c0 57.333 -21 102.5 -63 135.5s-100 49.5 -174 49.5v61c72 4 127.833 20.167 167.5 48.5s59.5 66.166 59.5 113.499
c0 46.667 -19.833 85 -59.5 115s-90.834 45 -153.501 45c-30.667 0 -61 -4.83301 -91 -14.5s-61.667 -24.834 -95 -45.501v64c28 16.667 58.167 29.334 90.5 38.001s66.166 13 101.499 13c84 0 151.167 -19.333 201.5 -58s75.5 -89.667 75.5 -153
c0 -48 -13.667 -88.667 -41 -122s-67.666 -57.333 -120.999 -72c58 -16.667 101.5 -42.834 130.5 -78.501s43.5 -81.167 43.5 -136.5c0 -74 -27 -133.5 -81 -178.5s-125.333 -67.5 -214 -67.5c-38 0 -74.167 3.83301 -108.5 11.5s-65.166 18.834 -92.499 33.501z" />
    <glyph glyph-name="acute" unicode="&#xb4;" 
d="M479 1055h-92l209 348h152z" />
    <glyph glyph-name="mu" unicode="&#xb5;" horiz-adv-x="1094" 
d="M326 1063l-122.999 -589.998c-6 -28.667 -10.333 -54.334 -13 -77.001s-4 -44 -4 -64c0 -84 20 -148 60 -192s98 -66 174 -66c84.667 0 157.834 36.333 219.501 109s107.167 177 136.5 313l125 567h121l-166 -786c-1.33301 -6 -3 -14 -5 -24
c-13.333 -61.333 -20 -98.666 -20 -111.999c0 -20.667 5.83301 -36.334 17.5 -47.001s28.5 -16 50.5 -16c6 0 12.167 0.166992 18.5 0.5s13.166 0.833008 20.499 1.5l-18 -96c-2 -0.666992 -4.66699 -1.33398 -8 -2.00098c-32.667 -7.33301 -55.334 -11 -68.001 -11
c-45.333 0 -78.833 10.5 -100.5 31.5s-32.5 52.833 -32.5 95.5c0 4.66699 0.166992 10 0.5 16s1.5 15.667 3.5 29c-28.667 -55.333 -69.834 -97.833 -123.501 -127.5s-116.5 -44.5 -188.5 -44.5c-64.667 0 -121.167 15.167 -169.5 45.5s-83.166 72.5 -104.499 126.5
l-119 -567h-121l316 1487h121z" />
    <glyph glyph-name="paragraph" unicode="&#xb6;" 
d="M932 1415h-128.999v-1415h-70v1415h-192v-1415h-70v782c-116.667 5.33301 -209.334 39.5 -278.001 102.5s-103 144.833 -103 245.5c0 104.667 36.167 189 108.5 253s167.833 96 286.5 96h447v-64z" />
    <glyph glyph-name="periodcentered" unicode="&#xb7;" horiz-adv-x="516" 
d="M166 700c0 26 9 48 27 66s39.667 27 65 27s47 -9 65 -27s27 -40 27 -66c0 -25.333 -9 -47 -27 -65s-39.667 -27 -65 -27s-47 9 -65 27s-27 39.667 -27 65z" />
    <glyph glyph-name="cedilla" unicode="&#xb8;" 
d="M272 -420l-0.000976562 78c51.333 -12 96.666 -20.833 135.999 -26.5s73.333 -8.5 102 -8.5c42.667 0 74.834 7.5 96.501 22.5s32.5 37.5 32.5 67.5c0 36.667 -11.5 63.334 -34.5 80.001s-59.167 25 -108.5 25c-12.667 0 -22.167 -0.166992 -28.5 -0.5
s-12.5 -0.833008 -18.5 -1.5v184h63v-111h14c73.333 0 129.333 -14.667 168 -44s58 -72 58 -128c0 -56.667 -19.667 -100.167 -59 -130.5s-95.666 -45.5 -168.999 -45.5c-38 0 -77.5 3.16699 -118.5 9.5s-85.5 16.166 -133.5 29.499z" />
    <glyph glyph-name="onesuperior" unicode="&#xb9;" horiz-adv-x="682" 
d="M307 559v840h70v-840h-70z" />
    <glyph glyph-name="ordmasculine" unicode="&#xba;" horiz-adv-x="813" 
d="M131 1075c0 -75.333 26.833 -139.166 80.5 -191.499s119.167 -78.5 196.5 -78.5c76 0 140.667 26.167 194 78.5s80 116.166 80 191.499s-26.667 139.333 -80 192s-118 79 -194 79c-77.333 0 -142.833 -26.333 -196.5 -79s-80.5 -116.667 -80.5 -192zM47 1075
c0 94 35.001 173.833 105.001 239.5s155.333 98.5 256 98.5c99.333 0 184.166 -32.833 254.499 -98.5s105.5 -145.5 105.5 -239.5c0 -44 -9.33301 -87 -28 -129s-44.667 -78.667 -78 -110c-34.667 -32 -73.667 -56.167 -117 -72.5s-89 -24.5 -137 -24.5
c-100.667 0 -186 32.5 -256 97.5s-105 144.5 -105 238.5z" />
    <glyph glyph-name="guillemotright" unicode="&#xbb;" horiz-adv-x="854" 
d="M76 774h127l252 -313l-252 -311h-127l250 311zM397 774h129l252 -313l-252 -311h-129l252 311z" />
    <glyph glyph-name="onequarter" unicode="&#xbc;" horiz-adv-x="1645" 
d="M1417 350v326l-307 -326h307zM1417 0v297h-401v25l442 473h25v-445h127v-53h-127v-297h-66zM1227 1421h106l-915 -1446h-109zM293 614v783h65v-783h-65z" />
    <glyph glyph-name="onehalf" unicode="&#xbd;" horiz-adv-x="1645" 
d="M1047 0l0.000976562 10.001c131.333 117.333 231.666 223.666 300.999 318.999s104 175.333 104 240c0 52 -19 94 -57 126s-88 48 -150 48c-29.333 0 -59 -6.5 -89 -19.5s-62.333 -33.5 -97 -61.5v63c31.333 24 63.5 42 96.5 54s67.833 18 104.5 18
c76 0 138 -21.5 186 -64.5s72 -98.833 72 -167.5c0 -62 -26.5 -133.833 -79.5 -215.5s-135.833 -178.5 -248.5 -290.5h412v-59h-555zM1227 1421h106l-915 -1446h-109zM293.001 614.001v783h65v-783h-65z" />
    <glyph glyph-name="threequarters" unicode="&#xbe;" horiz-adv-x="1645" 
d="M1417 350v326l-307 -326h307zM1417 0v297h-401v25l442 473h25v-445h127v-53h-127v-297h-66zM1227 1421h106l-915 -1446h-109zM61 643l-0.00195312 61.998c30.667 -15.333 61.334 -26.833 92.001 -34.5s62.334 -11.5 95.001 -11.5c67.333 0 120.333 15.333 159 46
s58 72 58 124c0 52.667 -20.167 94.334 -60.5 125.001s-95.166 46.667 -164.499 48v55c68 4 120.833 19.167 158.5 45.5s56.5 61.5 56.5 105.5c0 44.667 -18.667 80.834 -56 108.501s-86.333 41.5 -147 41.5c-30 0 -59.167 -4.5 -87.5 -13.5s-58.5 -22.833 -90.5 -41.5v59
c27.333 16 56.333 28.167 87 36.5s63 12.5 97 12.5c79.333 0 143.166 -18.333 191.499 -55s72.5 -84.667 72.5 -144c0 -44.667 -13 -82.167 -39 -112.5s-64 -52.833 -114 -67.5c55.333 -16 96.333 -40.667 123 -74s40 -76.333 40 -129c0 -68 -25.5 -122.833 -76.5 -164.5
s-118.833 -62.5 -203.5 -62.5c-36.667 0 -71.167 3.5 -103.5 10.5s-61.5 17.167 -87.5 30.5z" />
    <glyph glyph-name="questiondown" unicode="&#xbf;" horiz-adv-x="651" 
d="M432 1399v-205h-133v205h133zM373 1053c29.333 -28.667 51.335 -59.667 66.002 -93s22 -70 22 -110c0 -62 -49 -168.667 -147 -320l-11 -16c-26 -40.667 -46.5 -82.667 -61.5 -126s-22.5 -82 -22.5 -116c0 -64.667 13.5 -114.5 40.5 -149.5s65.5 -52.5 115.5 -52.5
c29.333 0 56.333 7.5 81 22.5s52.334 40.833 83.001 77.5l16 -10l-43 -144c-21.333 -14 -43.5 -24.333 -66.5 -31s-48.5 -10 -76.5 -10c-74.667 0 -136.334 27.667 -185.001 83s-73 125.333 -73 210c0 46.667 9.16699 96.167 27.5 148.5s47.166 110.833 86.499 175.5
c12 19.333 30.667 47 56 83c62.667 88 94 160 94 216c0 25.333 -3.33301 49 -10 71s-16.334 42 -29.001 60z" />
    <glyph glyph-name="Agrave" unicode="&#xc0;" horiz-adv-x="1159" 
d="M311 582h537l-268 635zM-53 0l610 1411h45l610 -1411h-118l-207 487h-615l-206 -487h-119zM613 1534l-269 348h152l209 -348h-92z" />
    <glyph glyph-name="Aacute" unicode="&#xc1;" horiz-adv-x="1159" 
d="M311 582h537l-268 635zM-53 0l610 1411h45l610 -1411h-118l-207 487h-615l-206 -487h-119zM547 1534h-92l209 348h152z" />
    <glyph glyph-name="Acircumflex" unicode="&#xc2;" horiz-adv-x="1159" 
d="M311 582h537l-268 635zM-53 0l610 1411h45l610 -1411h-118l-207 487h-615l-206 -487h-119zM304 1534l200 348h152l200 -348h-92l-184 262l-184 -262h-92z" />
    <glyph glyph-name="Atilde" unicode="&#xc3;" horiz-adv-x="1159" 
d="M311 582h537l-268 635zM-53 0l610 1411h45l610 -1411h-118l-207 487h-615l-206 -487h-119zM869 1796c-17.333 -60 -42.1689 -105.335 -74.502 -136.002s-71.166 -46 -116.499 -46c-9.33301 0 -19.5 0.833008 -30.5 2.5s-22.5 4.16699 -34.5 7.5l-96 31
c-8.66699 2.66699 -17.334 4.66699 -26.001 6s-18 2 -28 2c-19.333 0 -37 -6.16699 -53 -18.5s-29 -30.166 -39 -53.499h-80c14.667 58.667 38.667 103.667 72 135s74.333 47 123 47c10.667 0 20.334 -0.666992 29.001 -2s16.667 -3.33301 24 -6l97 -31
c8 -2.66699 17 -5 27 -7s19.333 -3 28 -3c22.667 0 41.834 5.83301 57.501 17.5s28.5 29.834 38.5 54.501h82z" />
    <glyph glyph-name="Adieresis" unicode="&#xc4;" horiz-adv-x="1159" 
d="M311 582h537l-268 635zM-53 0l610 1411h45l610 -1411h-118l-207 487h-615l-206 -487h-119zM670 1609v164h141v-164h-141zM349 1609v164h141v-164h-141z" />
    <glyph glyph-name="Aring" unicode="&#xc5;" horiz-adv-x="1159" 
d="M430 1714c0 -42 14.5 -77.333 43.5 -106s64.5 -43 106.5 -43c41.333 0 76.5 14.5 105.5 43.5s43.5 64.167 43.5 105.5c0 42 -14.333 77.5 -43 106.5s-64 43.5 -106 43.5s-77.5 -14.5 -106.5 -43.5s-43.5 -64.5 -43.5 -106.5zM338 1714c0 68 23.333 125.333 70 172
s104 70 172 70c67.333 0 124 -23.333 170 -70s69 -104 69 -172c0 -67.333 -23 -124 -69 -170s-102.667 -69 -170 -69c-68 0 -125.333 23 -172 69s-70 102.667 -70 170zM311 582h537l-268 635zM-53 0l610 1411h45l610 -1411h-118l-207 487h-615l-206 -487h-119z" />
    <glyph glyph-name="AE" unicode="&#xc6;" horiz-adv-x="1729" 
d="M883 754v555h-15l-331 -555h346zM883 0v664h-406l-416 -664h-118l872 1399h825v-90h-645v-555h625v-90h-625v-570h662v-94h-774z" />
    <glyph glyph-name="Ccedilla" unicode="&#xc7;" horiz-adv-x="1391" 
d="M1327 104c-83.333 -42.667 -165.668 -74.833 -247.001 -96.5s-162 -32.5 -242 -32.5c-80.667 0 -157.167 10.5 -229.5 31.5s-139.833 52.167 -202.5 93.5c-102.667 66.667 -182.334 153 -239.001 259s-85 221.333 -85 346c0 94 18.667 185.167 56 273.5
s90.333 165.5 159 231.5c72 70 153.833 123 245.5 159s190.167 54 295.5 54c76.667 0 155.667 -10.833 237 -32.5s165.333 -54.5 252 -98.5v-116c-94 50 -181.333 87 -262 111s-157.667 36 -231 36c-65.333 0 -127.666 -8.83301 -186.999 -26.5s-115.333 -43.5 -168 -77.5
c-86.667 -58.667 -154 -133.167 -202 -223.5s-72 -188.833 -72 -295.5c0 -82 15.5 -161.5 46.5 -238.5s74.833 -144.833 131.5 -203.5s123.834 -103.667 201.501 -135s160.834 -47 249.501 -47c72.667 0 149.167 12 229.5 36s168.166 61 263.499 111v-119zM511.998 -419.999
l-0.000976562 78c51.333 -12 96.666 -20.833 135.999 -26.5s73.333 -8.5 102 -8.5c42.667 0 74.834 7.5 96.501 22.5s32.5 37.5 32.5 67.5c0 36.667 -11.5 63.334 -34.5 80.001s-59.167 25 -108.5 25c-12.667 0 -22.167 -0.166992 -28.5 -0.5s-12.5 -0.833008 -18.5 -1.5
v184h63v-111h14c73.333 0 129.333 -14.667 168 -44s58 -72 58 -128c0 -56.667 -19.667 -100.167 -59 -130.5s-95.666 -45.5 -168.999 -45.5c-38 0 -77.5 3.16699 -118.5 9.5s-85.5 16.166 -133.5 29.499z" />
    <glyph glyph-name="Egrave" unicode="&#xc8;" horiz-adv-x="1010" 
d="M164 0v1399h758v-90h-646v-555h625v-90h-625v-570h662v-94h-774zM580 1534l-269 348h152l209 -348h-92z" />
    <glyph glyph-name="Eacute" unicode="&#xc9;" horiz-adv-x="1010" 
d="M164 0v1399h758v-90h-646v-555h625v-90h-625v-570h662v-94h-774zM514 1534h-92l209 348h152z" />
    <glyph glyph-name="Ecircumflex" unicode="&#xca;" horiz-adv-x="1010" 
d="M164 0v1399h758v-90h-646v-555h625v-90h-625v-570h662v-94h-774zM271 1534l200 348h152l200 -348h-92l-184 262l-184 -262h-92z" />
    <glyph glyph-name="Edieresis" unicode="&#xcb;" horiz-adv-x="1010" 
d="M164 0v1399h758v-90h-646v-555h625v-90h-625v-570h662v-94h-774zM637 1609v164h141v-164h-141zM316 1609v164h141v-164h-141z" />
    <glyph glyph-name="Igrave" unicode="&#xcc;" horiz-adv-x="463" 
d="M170 0v1399h121v-1399h-121zM264 1534l-269 348h152l209 -348h-92z" />
    <glyph glyph-name="Iacute" unicode="&#xcd;" horiz-adv-x="463" 
d="M170 0v1399h121v-1399h-121zM198 1534h-92l209 348h152z" />
    <glyph glyph-name="Icircumflex" unicode="&#xce;" horiz-adv-x="463" 
d="M170 0v1399h121v-1399h-121zM-45 1534l200 348h152l200 -348h-92l-184 262l-184 -262h-92z" />
    <glyph glyph-name="Idieresis" unicode="&#xcf;" horiz-adv-x="463" 
d="M170 0v1399h121v-1399h-121zM321 1609v164h141v-164h-141zM0 1609v164h141v-164h-141z" />
    <glyph glyph-name="Eth" unicode="&#xd0;" horiz-adv-x="1507" 
d="M629 1298h-338v-548h391v-93h-391v-559h338c92.667 0 172.167 7.66699 238.5 23s123.166 39.333 170.499 72c78.667 52 140 122.667 184 212s66 187 66 293s-22 203.833 -66 293.5s-105.333 160.5 -184 212.5c-47.333 32.667 -104.166 56.5 -170.499 71.5
s-145.833 22.5 -238.5 22.5zM659 1399c106.667 0 197.167 -10.165 271.5 -30.498s141.833 -52.5 202.5 -96.5c88 -65.333 156.667 -148.333 206 -249s74 -208.334 74 -323.001c0 -114 -24.667 -221.333 -74 -322s-118 -183.667 -206 -249
c-60.667 -44.667 -128.667 -77.334 -204 -98.001s-165.333 -31 -270 -31h-487v657h-172v93h172v649h487z" />
    <glyph glyph-name="Ntilde" unicode="&#xd1;" horiz-adv-x="1581" 
d="M164 0v1399h117l1024 -1221v1221h112v-1399h-104l-1037 1237v-1237h-112zM1088 1796c-17.333 -60 -42.1689 -105.335 -74.502 -136.002s-71.166 -46 -116.499 -46c-9.33301 0 -19.5 0.833008 -30.5 2.5s-22.5 4.16699 -34.5 7.5l-96 31
c-8.66699 2.66699 -17.334 4.66699 -26.001 6s-18 2 -28 2c-19.333 0 -37 -6.16699 -53 -18.5s-29 -30.166 -39 -53.499h-80c14.667 58.667 38.667 103.667 72 135s74.333 47 123 47c10.667 0 20.334 -0.666992 29.001 -2s16.667 -3.33301 24 -6l97 -31
c8 -2.66699 17 -5 27 -7s19.333 -3 28 -3c22.667 0 41.834 5.83301 57.501 17.5s28.5 29.834 38.5 54.501h82z" />
    <glyph glyph-name="Ograve" unicode="&#xd2;" horiz-adv-x="1632" 
d="M205 700c0 -82 15.501 -161.5 46.501 -238.5s74.833 -144.833 131.5 -203.5c56.667 -57.333 123 -102 199 -134s154.333 -48 235 -48c83.333 0 162 15.5 236 46.5s140 76.167 198 135.5c58 58.667 102.333 126 133 202s46 156 46 240s-15.167 163.333 -45.5 238
s-74.833 141.667 -133.5 201c-58 58.667 -124.5 104 -199.5 136s-153.167 48 -234.5 48c-80.667 0 -158.334 -15.833 -233.001 -47.5s-141.667 -77.167 -201 -136.5c-57.333 -57.333 -101.333 -123.833 -132 -199.5s-46 -155.5 -46 -239.5zM82.001 705
c0 94 18.665 184.831 55.998 272.498s90.333 165.167 159 232.5c70.667 68.667 150.5 121 239.5 157s182.5 54 280.5 54c99.333 0 193.5 -18 282.5 -54s168.167 -88.333 237.5 -157c70.667 -69.333 124.167 -147.166 160.5 -233.499s54.5 -178.5 54.5 -276.5
c0 -73.333 -10.5 -144.333 -31.5 -213s-52.167 -132.667 -93.5 -192c-69.333 -102 -157.166 -180.833 -263.499 -236.5s-221.833 -83.5 -346.5 -83.5c-98.667 0 -193.167 18.333 -283.5 55s-169.166 88.667 -236.499 156c-70 70 -123.333 149.333 -160 238
s-55 182.334 -55 281.001zM849.999 1534l-269 348h152l209 -348h-92z" />
    <glyph glyph-name="Oacute" unicode="&#xd3;" horiz-adv-x="1632" 
d="M205 700c0 -82 15.501 -161.5 46.501 -238.5s74.833 -144.833 131.5 -203.5c56.667 -57.333 123 -102 199 -134s154.333 -48 235 -48c83.333 0 162 15.5 236 46.5s140 76.167 198 135.5c58 58.667 102.333 126 133 202s46 156 46 240s-15.167 163.333 -45.5 238
s-74.833 141.667 -133.5 201c-58 58.667 -124.5 104 -199.5 136s-153.167 48 -234.5 48c-80.667 0 -158.334 -15.833 -233.001 -47.5s-141.667 -77.167 -201 -136.5c-57.333 -57.333 -101.333 -123.833 -132 -199.5s-46 -155.5 -46 -239.5zM82.001 705
c0 94 18.665 184.831 55.998 272.498s90.333 165.167 159 232.5c70.667 68.667 150.5 121 239.5 157s182.5 54 280.5 54c99.333 0 193.5 -18 282.5 -54s168.167 -88.333 237.5 -157c70.667 -69.333 124.167 -147.166 160.5 -233.499s54.5 -178.5 54.5 -276.5
c0 -73.333 -10.5 -144.333 -31.5 -213s-52.167 -132.667 -93.5 -192c-69.333 -102 -157.166 -180.833 -263.499 -236.5s-221.833 -83.5 -346.5 -83.5c-98.667 0 -193.167 18.333 -283.5 55s-169.166 88.667 -236.499 156c-70 70 -123.333 149.333 -160 238
s-55 182.334 -55 281.001zM783.999 1534h-92l209 348h152z" />
    <glyph glyph-name="Ocircumflex" unicode="&#xd4;" horiz-adv-x="1632" 
d="M205 700c0 -82 15.501 -161.5 46.501 -238.5s74.833 -144.833 131.5 -203.5c56.667 -57.333 123 -102 199 -134s154.333 -48 235 -48c83.333 0 162 15.5 236 46.5s140 76.167 198 135.5c58 58.667 102.333 126 133 202s46 156 46 240s-15.167 163.333 -45.5 238
s-74.833 141.667 -133.5 201c-58 58.667 -124.5 104 -199.5 136s-153.167 48 -234.5 48c-80.667 0 -158.334 -15.833 -233.001 -47.5s-141.667 -77.167 -201 -136.5c-57.333 -57.333 -101.333 -123.833 -132 -199.5s-46 -155.5 -46 -239.5zM82.001 705
c0 94 18.665 184.831 55.998 272.498s90.333 165.167 159 232.5c70.667 68.667 150.5 121 239.5 157s182.5 54 280.5 54c99.333 0 193.5 -18 282.5 -54s168.167 -88.333 237.5 -157c70.667 -69.333 124.167 -147.166 160.5 -233.499s54.5 -178.5 54.5 -276.5
c0 -73.333 -10.5 -144.333 -31.5 -213s-52.167 -132.667 -93.5 -192c-69.333 -102 -157.166 -180.833 -263.499 -236.5s-221.833 -83.5 -346.5 -83.5c-98.667 0 -193.167 18.333 -283.5 55s-169.166 88.667 -236.499 156c-70 70 -123.333 149.333 -160 238
s-55 182.334 -55 281.001zM540.999 1534l200 348h152l200 -348h-92l-184 262l-184 -262h-92z" />
    <glyph glyph-name="Otilde" unicode="&#xd5;" horiz-adv-x="1632" 
d="M205 700c0 -82 15.501 -161.5 46.501 -238.5s74.833 -144.833 131.5 -203.5c56.667 -57.333 123 -102 199 -134s154.333 -48 235 -48c83.333 0 162 15.5 236 46.5s140 76.167 198 135.5c58 58.667 102.333 126 133 202s46 156 46 240s-15.167 163.333 -45.5 238
s-74.833 141.667 -133.5 201c-58 58.667 -124.5 104 -199.5 136s-153.167 48 -234.5 48c-80.667 0 -158.334 -15.833 -233.001 -47.5s-141.667 -77.167 -201 -136.5c-57.333 -57.333 -101.333 -123.833 -132 -199.5s-46 -155.5 -46 -239.5zM82.001 705
c0 94 18.665 184.831 55.998 272.498s90.333 165.167 159 232.5c70.667 68.667 150.5 121 239.5 157s182.5 54 280.5 54c99.333 0 193.5 -18 282.5 -54s168.167 -88.333 237.5 -157c70.667 -69.333 124.167 -147.166 160.5 -233.499s54.5 -178.5 54.5 -276.5
c0 -73.333 -10.5 -144.333 -31.5 -213s-52.167 -132.667 -93.5 -192c-69.333 -102 -157.166 -180.833 -263.499 -236.5s-221.833 -83.5 -346.5 -83.5c-98.667 0 -193.167 18.333 -283.5 55s-169.166 88.667 -236.499 156c-70 70 -123.333 149.333 -160 238
s-55 182.334 -55 281.001zM1106 1796c-17.333 -60 -42.1689 -105.335 -74.502 -136.002s-71.166 -46 -116.499 -46c-9.33301 0 -19.5 0.833008 -30.5 2.5s-22.5 4.16699 -34.5 7.5l-96 31c-8.66699 2.66699 -17.334 4.66699 -26.001 6s-18 2 -28 2
c-19.333 0 -37 -6.16699 -53 -18.5s-29 -30.166 -39 -53.499h-80c14.667 58.667 38.667 103.667 72 135s74.333 47 123 47c10.667 0 20.334 -0.666992 29.001 -2s16.667 -3.33301 24 -6l97 -31c8 -2.66699 17 -5 27 -7s19.333 -3 28 -3c22.667 0 41.834 5.83301 57.501 17.5
s28.5 29.834 38.5 54.501h82z" />
    <glyph glyph-name="Odieresis" unicode="&#xd6;" horiz-adv-x="1632" 
d="M205 700c0 -82 15.501 -161.5 46.501 -238.5s74.833 -144.833 131.5 -203.5c56.667 -57.333 123 -102 199 -134s154.333 -48 235 -48c83.333 0 162 15.5 236 46.5s140 76.167 198 135.5c58 58.667 102.333 126 133 202s46 156 46 240s-15.167 163.333 -45.5 238
s-74.833 141.667 -133.5 201c-58 58.667 -124.5 104 -199.5 136s-153.167 48 -234.5 48c-80.667 0 -158.334 -15.833 -233.001 -47.5s-141.667 -77.167 -201 -136.5c-57.333 -57.333 -101.333 -123.833 -132 -199.5s-46 -155.5 -46 -239.5zM82.001 705
c0 94 18.665 184.831 55.998 272.498s90.333 165.167 159 232.5c70.667 68.667 150.5 121 239.5 157s182.5 54 280.5 54c99.333 0 193.5 -18 282.5 -54s168.167 -88.333 237.5 -157c70.667 -69.333 124.167 -147.166 160.5 -233.499s54.5 -178.5 54.5 -276.5
c0 -73.333 -10.5 -144.333 -31.5 -213s-52.167 -132.667 -93.5 -192c-69.333 -102 -157.166 -180.833 -263.499 -236.5s-221.833 -83.5 -346.5 -83.5c-98.667 0 -193.167 18.333 -283.5 55s-169.166 88.667 -236.499 156c-70 70 -123.333 149.333 -160 238
s-55 182.334 -55 281.001zM906.999 1609v164h141v-164h-141zM585.999 1609v164h141v-164h-141z" />
    <glyph glyph-name="multiply" unicode="&#xd7;" horiz-adv-x="1706" 
d="M854 668l487 487l58 -57l-488 -488l488 -487l-58 -57l-487 487l-487 -487l-58 57l488 487l-488 488l58 57z" />
    <glyph glyph-name="Oslash" unicode="&#xd8;" horiz-adv-x="1632" 
d="M1260 1130l-811 -928.999c56 -41.333 116.667 -72.5 182 -93.5s133 -31.5 203 -31.5c76.667 0 152.5 16.667 227.5 50s141.167 80 198.5 140c54.667 59.333 96.667 126.666 126 201.999s44 155 44 239c0 80.667 -14.167 156.167 -42.5 226.5
s-70.833 135.833 -127.5 196.5zM379 262.001l811.001 931.999c-54 42.667 -113.333 74.834 -178 96.501s-133 32.5 -205 32.5c-62 0 -123.333 -10.667 -184 -32s-118.667 -53 -174 -95c-77.333 -57.333 -137.333 -129.5 -180 -216.5s-64 -180.167 -64 -279.5
c0 -78.667 14.667 -155 44 -229s72.666 -143.667 129.999 -209zM141.001 -10l164.002 188.001c-73.333 68 -128.833 145.833 -166.5 233.5s-56.5 181.834 -56.5 282.501c0 98 17.5 190.333 52.5 277s85.833 163 152.5 229c70.667 71.333 151.667 126 243 164
s186.333 57 285 57c79.333 0 156.333 -12.167 231 -36.5s146.667 -60.5 216 -108.5l145 170l70 -64l-144 -168c74 -74 129 -152.5 165 -235.5s54 -172.833 54 -269.5c0 -98 -17.333 -190.333 -52 -277s-85.334 -164.334 -152.001 -233.001
c-70 -72 -149.833 -127.333 -239.5 -166s-183.5 -58 -281.5 -58c-82.667 0 -162.334 12.167 -239.001 36.5s-147 60.166 -211 107.499l-166 -191z" />
    <glyph glyph-name="Ugrave" unicode="&#xd9;" horiz-adv-x="1460" 
d="M266 580c0 -150 42 -269.167 126 -357.5s196.333 -132.5 337 -132.5s253 44.167 337 132.5s126 207.5 126 357.5v819h117v-813c0 -188 -52.333 -337.167 -157 -447.5s-245.667 -165.5 -423 -165.5c-176.667 0 -317 55 -421 165s-156 259.333 -156 448v813h114v-819z
M764 1534l-269 348h152l209 -348h-92z" />
    <glyph glyph-name="Uacute" unicode="&#xda;" horiz-adv-x="1460" 
d="M266 580c0 -150 42 -269.167 126 -357.5s196.333 -132.5 337 -132.5s253 44.167 337 132.5s126 207.5 126 357.5v819h117v-813c0 -188 -52.333 -337.167 -157 -447.5s-245.667 -165.5 -423 -165.5c-176.667 0 -317 55 -421 165s-156 259.333 -156 448v813h114v-819z
M698 1534h-92l209 348h152z" />
    <glyph glyph-name="Ucircumflex" unicode="&#xdb;" horiz-adv-x="1460" 
d="M266 580c0 -150 42 -269.167 126 -357.5s196.333 -132.5 337 -132.5s253 44.167 337 132.5s126 207.5 126 357.5v819h117v-813c0 -188 -52.333 -337.167 -157 -447.5s-245.667 -165.5 -423 -165.5c-176.667 0 -317 55 -421 165s-156 259.333 -156 448v813h114v-819z
M455 1534l200 348h152l200 -348h-92l-184 262l-184 -262h-92z" />
    <glyph glyph-name="Udieresis" unicode="&#xdc;" horiz-adv-x="1460" 
d="M266 580c0 -150 42 -269.167 126 -357.5s196.333 -132.5 337 -132.5s253 44.167 337 132.5s126 207.5 126 357.5v819h117v-813c0 -188 -52.333 -337.167 -157 -447.5s-245.667 -165.5 -423 -165.5c-176.667 0 -317 55 -421 165s-156 259.333 -156 448v813h114v-819z
M821 1609v164h141v-164h-141zM500 1609v164h141v-164h-141z" />
    <glyph glyph-name="Yacute" unicode="&#xdd;" horiz-adv-x="1114" 
d="M500 0v750l-543 649h139l461 -553l461 553h139l-543 -649v-750h-114zM524 1534h-92l209 348h152z" />
    <glyph glyph-name="Thorn" unicode="&#xde;" horiz-adv-x="1038" 
d="M276 371v-370.999h-112v1399h112v-281h228c152 0 266.833 -31.5 344.5 -94.5s116.5 -156.5 116.5 -280.5c0 -112.667 -37.333 -202.834 -112 -270.501s-174.667 -101.5 -300 -101.5h-277zM276 1026v-557h213c122 0 211.333 22.5 268 67.5s85 116.167 85 213.5
c0 90 -28.167 158.5 -84.5 205.5s-138.833 70.5 -247.5 70.5h-234z" />
    <glyph glyph-name="germandbls" unicode="&#xdf;" horiz-adv-x="1020" 
d="M127 0v969.002c0 147.333 33 258.166 99 332.499s164 111.5 294 111.5c115.333 0 206.333 -30 273 -90s100 -141.333 100 -244c0 -68.667 -15.667 -127.5 -47 -176.5s-79.333 -89.167 -144 -120.5c83.333 -26.667 146.166 -70.334 188.499 -131.001s63.5 -137 63.5 -229
c0 -134 -34.833 -241.167 -104.5 -321.5s-162.5 -120.5 -278.5 -120.5c-21.333 0 -41.666 1.66699 -60.999 5s-38.333 8.33301 -57 15v106l12 -2c59.333 -13.333 99 -20 119 -20c78 0 140.5 29.333 187.5 88s70.5 138 70.5 238c0 98 -23.167 174 -69.5 228
s-114.166 83.667 -203.499 89v102c70 4.66699 123.333 28.5 160 71.5s55 103.167 55 180.5c0 74 -23.5 132.5 -70.5 175.5s-111.5 64.5 -193.5 64.5c-100.667 0 -174.334 -28 -221.001 -84s-70 -145.333 -70 -268v-969h-102z" />
    <glyph glyph-name="agrave" unicode="&#xe0;" horiz-adv-x="844" 
d="M594 186l-0.00195312 288.999c-133.333 -2 -238.666 -26 -315.999 -72s-116 -106.667 -116 -182c0 -47.333 16 -84.666 48 -111.999s76 -41 132 -41c38 0 77.333 9.5 118 28.5s85.334 48.833 134.001 89.5zM595.998 89.999
c-51.333 -39.333 -99.168 -67.501 -143.501 -84.501s-90.833 -25.5 -139.5 -25.5c-76 0 -137.667 22 -185 66s-71 101 -71 171c0 102 46.167 182.333 138.5 241s225.166 91.667 398.499 99v98c0 69.333 -16.5 119.833 -49.5 151.5s-85.5 47.5 -157.5 47.5
c-44.667 0 -89.667 -9 -135 -27s-94.666 -46.667 -147.999 -86v101c52 34.667 101.833 60.334 149.5 77.001s94.834 25 141.501 25c106 0 182.667 -24.5 230 -73.5s71 -128.833 71 -239.5v-484c0 -20 2.66699 -34.833 8 -44.5s13.666 -14.5 24.999 -14.5
c16 0 43.667 17.333 83 52c9.33301 8.66699 16.333 15 21 19l1 -93c-30 -28 -57.667 -49 -83 -63s-47.666 -21 -66.999 -21c-29.333 0 -50.833 8.5 -64.5 25.5s-21.5 44.5 -23.5 82.5zM444.996 1055l-269 348h152l209 -348h-92z" />
    <glyph glyph-name="aacute" unicode="&#xe1;" horiz-adv-x="844" 
d="M594 186l-0.00195312 288.999c-133.333 -2 -238.666 -26 -315.999 -72s-116 -106.667 -116 -182c0 -47.333 16 -84.666 48 -111.999s76 -41 132 -41c38 0 77.333 9.5 118 28.5s85.334 48.833 134.001 89.5zM595.998 89.999
c-51.333 -39.333 -99.168 -67.501 -143.501 -84.501s-90.833 -25.5 -139.5 -25.5c-76 0 -137.667 22 -185 66s-71 101 -71 171c0 102 46.167 182.333 138.5 241s225.166 91.667 398.499 99v98c0 69.333 -16.5 119.833 -49.5 151.5s-85.5 47.5 -157.5 47.5
c-44.667 0 -89.667 -9 -135 -27s-94.666 -46.667 -147.999 -86v101c52 34.667 101.833 60.334 149.5 77.001s94.834 25 141.501 25c106 0 182.667 -24.5 230 -73.5s71 -128.833 71 -239.5v-484c0 -20 2.66699 -34.833 8 -44.5s13.666 -14.5 24.999 -14.5
c16 0 43.667 17.333 83 52c9.33301 8.66699 16.333 15 21 19l1 -93c-30 -28 -57.667 -49 -83 -63s-47.666 -21 -66.999 -21c-29.333 0 -50.833 8.5 -64.5 25.5s-21.5 44.5 -23.5 82.5zM378.996 1055h-92l209 348h152z" />
    <glyph glyph-name="acircumflex" unicode="&#xe2;" horiz-adv-x="844" 
d="M594 186l-0.00195312 288.999c-133.333 -2 -238.666 -26 -315.999 -72s-116 -106.667 -116 -182c0 -47.333 16 -84.666 48 -111.999s76 -41 132 -41c38 0 77.333 9.5 118 28.5s85.334 48.833 134.001 89.5zM595.998 89.999
c-51.333 -39.333 -99.168 -67.501 -143.501 -84.501s-90.833 -25.5 -139.5 -25.5c-76 0 -137.667 22 -185 66s-71 101 -71 171c0 102 46.167 182.333 138.5 241s225.166 91.667 398.499 99v98c0 69.333 -16.5 119.833 -49.5 151.5s-85.5 47.5 -157.5 47.5
c-44.667 0 -89.667 -9 -135 -27s-94.666 -46.667 -147.999 -86v101c52 34.667 101.833 60.334 149.5 77.001s94.834 25 141.501 25c106 0 182.667 -24.5 230 -73.5s71 -128.833 71 -239.5v-484c0 -20 2.66699 -34.833 8 -44.5s13.666 -14.5 24.999 -14.5
c16 0 43.667 17.333 83 52c9.33301 8.66699 16.333 15 21 19l1 -93c-30 -28 -57.667 -49 -83 -63s-47.666 -21 -66.999 -21c-29.333 0 -50.833 8.5 -64.5 25.5s-21.5 44.5 -23.5 82.5zM135.996 1055l200 348h152l200 -348h-92l-184 262l-184 -262h-92z" />
    <glyph glyph-name="atilde" unicode="&#xe3;" horiz-adv-x="844" 
d="M594 186l-0.00195312 288.999c-133.333 -2 -238.666 -26 -315.999 -72s-116 -106.667 -116 -182c0 -47.333 16 -84.666 48 -111.999s76 -41 132 -41c38 0 77.333 9.5 118 28.5s85.334 48.833 134.001 89.5zM595.998 89.999
c-51.333 -39.333 -99.168 -67.501 -143.501 -84.501s-90.833 -25.5 -139.5 -25.5c-76 0 -137.667 22 -185 66s-71 101 -71 171c0 102 46.167 182.333 138.5 241s225.166 91.667 398.499 99v98c0 69.333 -16.5 119.833 -49.5 151.5s-85.5 47.5 -157.5 47.5
c-44.667 0 -89.667 -9 -135 -27s-94.666 -46.667 -147.999 -86v101c52 34.667 101.833 60.334 149.5 77.001s94.834 25 141.501 25c106 0 182.667 -24.5 230 -73.5s71 -128.833 71 -239.5v-484c0 -20 2.66699 -34.833 8 -44.5s13.666 -14.5 24.999 -14.5
c16 0 43.667 17.333 83 52c9.33301 8.66699 16.333 15 21 19l1 -93c-30 -28 -57.667 -49 -83 -63s-47.666 -21 -66.999 -21c-29.333 0 -50.833 8.5 -64.5 25.5s-21.5 44.5 -23.5 82.5zM700.996 1317c-17.333 -60 -42.1689 -105.335 -74.502 -136.002
s-71.166 -46 -116.499 -46c-9.33301 0 -19.5 0.833008 -30.5 2.5s-22.5 4.16699 -34.5 7.5l-96 31c-8.66699 2.66699 -17.334 4.66699 -26.001 6s-18 2 -28 2c-19.333 0 -37 -6.16699 -53 -18.5s-29 -30.166 -39 -53.499h-80c14.667 58.667 38.667 103.667 72 135
s74.333 47 123 47c10.667 0 20.334 -0.666992 29.001 -2s16.667 -3.33301 24 -6l97 -31c8 -2.66699 17 -5 27 -7s19.333 -3 28 -3c22.667 0 41.834 5.83301 57.501 17.5s28.5 29.834 38.5 54.501h82z" />
    <glyph glyph-name="adieresis" unicode="&#xe4;" horiz-adv-x="844" 
d="M594 186l-0.00195312 288.999c-133.333 -2 -238.666 -26 -315.999 -72s-116 -106.667 -116 -182c0 -47.333 16 -84.666 48 -111.999s76 -41 132 -41c38 0 77.333 9.5 118 28.5s85.334 48.833 134.001 89.5zM595.998 89.999
c-51.333 -39.333 -99.168 -67.501 -143.501 -84.501s-90.833 -25.5 -139.5 -25.5c-76 0 -137.667 22 -185 66s-71 101 -71 171c0 102 46.167 182.333 138.5 241s225.166 91.667 398.499 99v98c0 69.333 -16.5 119.833 -49.5 151.5s-85.5 47.5 -157.5 47.5
c-44.667 0 -89.667 -9 -135 -27s-94.666 -46.667 -147.999 -86v101c52 34.667 101.833 60.334 149.5 77.001s94.834 25 141.501 25c106 0 182.667 -24.5 230 -73.5s71 -128.833 71 -239.5v-484c0 -20 2.66699 -34.833 8 -44.5s13.666 -14.5 24.999 -14.5
c16 0 43.667 17.333 83 52c9.33301 8.66699 16.333 15 21 19l1 -93c-30 -28 -57.667 -49 -83 -63s-47.666 -21 -66.999 -21c-29.333 0 -50.833 8.5 -64.5 25.5s-21.5 44.5 -23.5 82.5zM501.996 1130v164h141v-164h-141zM180.996 1130v164h141v-164h-141z" />
    <glyph glyph-name="aring" unicode="&#xe5;" horiz-adv-x="844" 
d="M168 1253c0 67.333 23.333 124.166 70 170.499s104 69.5 172 69.5c67.333 0 124.333 -23.167 171 -69.5s70 -103.166 70 -170.499s-23.333 -124.333 -70 -171s-103.667 -70 -171 -70c-68 0 -125.333 23.333 -172 70s-70 103.667 -70 171zM260 1251
c0 -42 14.5 -77.333 43.5 -106s64.5 -43 106.5 -43c41.333 0 76.5 14.5 105.5 43.5s43.5 64.167 43.5 105.5c0 42.667 -14.5 78.667 -43.5 108s-64.167 44 -105.5 44c-42 0 -77.5 -14.667 -106.5 -44s-43.5 -65.333 -43.5 -108zM596 90
c-51.333 -39.333 -99.168 -67.5 -143.501 -84.5s-90.833 -25.5 -139.5 -25.5c-76 0 -137.667 22 -185 66s-71 101 -71 171c0 102 46.167 182.333 138.5 241s225.166 91.667 398.499 99v98c0 69.333 -16.5 119.833 -49.5 151.5s-85.5 47.5 -157.5 47.5
c-44.667 0 -89.667 -9 -135 -27s-94.666 -46.667 -147.999 -86v101c52 34.667 101.833 60.334 149.5 77.001s94.834 25 141.501 25c106 0 182.667 -24.5 230 -73.5s71 -128.833 71 -239.5v-471c0 -32.667 2.5 -52.834 7.5 -60.501s14.167 -11.5 27.5 -11.5
c6.66699 0 16.667 4.5 30 13.5s37.666 28.5 72.999 58.5v-94c-30 -28 -57.667 -49 -83 -63s-47.666 -21 -66.999 -21c-29.333 0 -50.833 8.5 -64.5 25.5s-21.5 44.5 -23.5 82.5zM593.998 186l-0.00195312 288.999c-133.333 -2 -238.666 -26 -315.999 -72
s-116 -106.667 -116 -182c0 -47.333 16 -84.666 48 -111.999s76 -41 132 -41c38 0 77.333 9.5 118 28.5s85.334 48.833 134.001 89.5z" />
    <glyph glyph-name="ae" unicode="&#xe6;" horiz-adv-x="1462" 
d="M731 582l529 -0.000976562c-10 80.667 -38 145.834 -84 195.501s-100.667 74.5 -164 74.5c-72 0 -133.5 -24.5 -184.5 -73.5s-83.167 -114.5 -96.5 -196.5zM625 194.999l0.00195312 301c-147.333 -7.33301 -261 -33.833 -341 -79.5s-120 -106.834 -120 -183.501
c0 -53.333 16.5 -94.166 49.5 -122.499s80.5 -42.5 142.5 -42.5c43.333 0 86.666 10.167 129.999 30.5s89.666 52.5 138.999 96.5zM702.002 157.999c-65.333 -62 -128.334 -107.168 -189.001 -135.501s-123 -42.5 -187 -42.5c-81.333 0 -146.5 22.167 -195.5 66.5
s-73.5 103.166 -73.5 176.499c0 108 50 193.833 150 257.5s239.333 97.5 418 101.5v73c0 69.333 -16.5 119.5 -49.5 150.5s-85.5 46.5 -157.5 46.5c-49.333 0 -98.666 -9.83301 -147.999 -29.5s-98.333 -48.834 -147 -87.501v99c51.333 36.667 102.166 64.167 152.499 82.5
s100.5 27.5 150.5 27.5c73.333 0 133.5 -13 180.5 -39s83.167 -66.333 108.5 -121c37.333 52.667 80 91.834 128 117.501s103 38.5 165 38.5c112.667 0 202.5 -40 269.5 -120s100.5 -188 100.5 -324h-647v-19c0 -121.333 28.5 -218.166 85.5 -290.499
s132.167 -108.5 225.5 -108.5c53.333 0 106.333 11.167 159 33.5s107 56.833 163 103.5v-115c-54 -41.333 -107.167 -71.666 -159.5 -90.999s-107.166 -29 -164.499 -29c-74 0 -137.833 14.167 -191.5 42.5s-102.5 73.5 -146.5 135.5z" />
    <glyph glyph-name="ccedilla" unicode="&#xe7;" horiz-adv-x="825" 
d="M788 37c-38 -18.667 -76.166 -32.501 -114.499 -41.501s-77.833 -13.5 -118.5 -13.5c-142 0 -258.667 45 -350 135s-137 205.333 -137 346c0 136.667 47 251 141 343s212 138 354 138c34.667 0 69.167 -3.33301 103.5 -10s68.833 -17 103.5 -31v-115
c-35.333 20.667 -71 35.834 -107 45.501s-74 14.5 -114 14.5c-102.667 0 -189.834 -37.5 -261.501 -112.5s-107.5 -166.5 -107.5 -274.5c0 -108.667 35.667 -200 107 -274s158.666 -111 261.999 -111c38.667 0 77.834 6.33301 117.501 19s80.167 31.667 121.5 57v-115z
M229.001 -420.001l-0.000976562 78c51.333 -12 96.666 -20.833 135.999 -26.5s73.333 -8.5 102 -8.5c42.667 0 74.834 7.5 96.501 22.5s32.5 37.5 32.5 67.5c0 36.667 -11.5 63.334 -34.5 80.001s-59.167 25 -108.5 25c-12.667 0 -22.167 -0.166992 -28.5 -0.5
s-12.5 -0.833008 -18.5 -1.5v184h63v-111h14c73.333 0 129.333 -14.667 168 -44s58 -72 58 -128c0 -56.667 -19.667 -100.167 -59 -130.5s-95.666 -45.5 -168.999 -45.5c-38 0 -77.5 3.16699 -118.5 9.5s-85.5 16.166 -133.5 29.499z" />
    <glyph glyph-name="egrave" unicode="&#xe8;" horiz-adv-x="979" 
d="M883 102c-60 -41.333 -118.667 -72 -176 -92s-116.333 -30 -177 -30c-138 0 -248.833 45.333 -332.5 136s-125.5 211 -125.5 361c0 140 39.5 252.5 118.5 337.5s182.833 127.5 311.5 127.5c119.333 0 215.666 -40.333 288.999 -121s110 -187.667 110 -321v-4h-721v-11
c0 -120.667 32.333 -218.334 97 -293.001s148.334 -112 251.001 -112c61.333 0 120.333 10.833 177 32.5s116 55.834 178 102.501v-113zM193 584l587.002 0.000976562c-10.667 81.333 -42.334 146.666 -95.001 195.999s-116.334 74 -191.001 74c-76.667 0 -143 -25 -199 -75
s-90 -115 -102 -195zM525.002 1055l-269 348h152l209 -348h-92z" />
    <glyph glyph-name="eacute" unicode="&#xe9;" horiz-adv-x="979" 
d="M883 102c-60 -41.333 -118.667 -72 -176 -92s-116.333 -30 -177 -30c-138 0 -248.833 45.333 -332.5 136s-125.5 211 -125.5 361c0 140 39.5 252.5 118.5 337.5s182.833 127.5 311.5 127.5c119.333 0 215.666 -40.333 288.999 -121s110 -187.667 110 -321v-4h-721v-11
c0 -120.667 32.333 -218.334 97 -293.001s148.334 -112 251.001 -112c61.333 0 120.333 10.833 177 32.5s116 55.834 178 102.501v-113zM193 584l587.002 0.000976562c-10.667 81.333 -42.334 146.666 -95.001 195.999s-116.334 74 -191.001 74c-76.667 0 -143 -25 -199 -75
s-90 -115 -102 -195zM459.002 1055h-92l209 348h152z" />
    <glyph glyph-name="ecircumflex" unicode="&#xea;" horiz-adv-x="979" 
d="M883 102c-60 -41.333 -118.667 -72 -176 -92s-116.333 -30 -177 -30c-138 0 -248.833 45.333 -332.5 136s-125.5 211 -125.5 361c0 140 39.5 252.5 118.5 337.5s182.833 127.5 311.5 127.5c119.333 0 215.666 -40.333 288.999 -121s110 -187.667 110 -321v-4h-721v-11
c0 -120.667 32.333 -218.334 97 -293.001s148.334 -112 251.001 -112c61.333 0 120.333 10.833 177 32.5s116 55.834 178 102.501v-113zM193 584l587.002 0.000976562c-10.667 81.333 -42.334 146.666 -95.001 195.999s-116.334 74 -191.001 74c-76.667 0 -143 -25 -199 -75
s-90 -115 -102 -195zM216.002 1055l200 348h152l200 -348h-92l-184 262l-184 -262h-92z" />
    <glyph glyph-name="edieresis" unicode="&#xeb;" horiz-adv-x="979" 
d="M883 102c-60 -41.333 -118.667 -72 -176 -92s-116.333 -30 -177 -30c-138 0 -248.833 45.333 -332.5 136s-125.5 211 -125.5 361c0 140 39.5 252.5 118.5 337.5s182.833 127.5 311.5 127.5c119.333 0 215.666 -40.333 288.999 -121s110 -187.667 110 -321v-4h-721v-11
c0 -120.667 32.333 -218.334 97 -293.001s148.334 -112 251.001 -112c61.333 0 120.333 10.833 177 32.5s116 55.834 178 102.501v-113zM193 584l587.002 0.000976562c-10.667 81.333 -42.334 146.666 -95.001 195.999s-116.334 74 -191.001 74c-76.667 0 -143 -25 -199 -75
s-90 -115 -102 -195zM582.002 1130v164h141v-164h-141zM261.002 1130v164h141v-164h-141z" />
    <glyph glyph-name="igrave" unicode="&#xec;" horiz-adv-x="365" 
d="M131 0v924h105v-924h-105zM215 1055l-269 348h152l209 -348h-92z" />
    <glyph glyph-name="iacute" unicode="&#xed;" horiz-adv-x="365" 
d="M131 0v924h105v-924h-105zM149 1055h-92l209 348h152z" />
    <glyph glyph-name="icircumflex" unicode="&#xee;" horiz-adv-x="365" 
d="M131 0v924h105v-924h-105zM-94 1055l200 348h152l200 -348h-92l-184 262l-184 -262h-92z" />
    <glyph glyph-name="idieresis" unicode="&#xef;" horiz-adv-x="365" 
d="M131 0v924h105v-924h-105zM272 1130v164h141v-164h-141zM-49 1130v164h141v-164h-141z" />
    <glyph glyph-name="eth" unicode="&#xf0;" horiz-adv-x="1083" 
d="M774 848c-40 56 -77.999 106.666 -113.999 151.999s-69 84 -99 116l-254 -127l-33 66l228 119c-31.333 28.667 -62.5 55.834 -93.5 81.501l-95.5 75.5l56 68c40.667 -28 79.5 -56.833 116.5 -86.5s71.833 -60.167 104.5 -91.5l254 127l39 -66l-232 -119
c122 -132 213 -256.667 273 -374s90 -229.333 90 -336c0 -130 -46 -241 -138 -333s-203 -138 -333 -138c-132 0 -243.5 45.333 -334.5 136s-136.5 202.334 -136.5 335.001c0 131.333 45.5 242.666 136.5 333.999s202.5 137 334.5 137
c45.333 0 86.666 -6.16699 123.999 -18.5s73 -31.5 107 -57.5zM182.001 452.999c0 -106 35.001 -195.667 105.001 -269s155.333 -110 256 -110c99.333 0 184.166 37 254.499 111s105.5 163.333 105.5 268c0 105.333 -35 194.666 -105 267.999s-155 110 -255 110
c-100.667 0 -186 -36.667 -256 -110s-105 -162.666 -105 -267.999z" />
    <glyph glyph-name="ntilde" unicode="&#xf1;" horiz-adv-x="991" 
d="M123 0l-0.000976562 924.001h102v-148c44.667 55.333 93.5 96.5 146.5 123.5s110.833 40.5 173.5 40.5c104.667 0 185.334 -32.667 242.001 -98s85 -158.333 85 -279v-563h-102v514c0 111.333 -19.5 194.5 -58.5 249.5s-97.833 82.5 -176.5 82.5
c-64 0 -121.833 -16.333 -173.5 -49s-97.167 -81.334 -136.5 -146.001v-651h-102zM790.999 1317c-17.333 -60 -42.1689 -105.335 -74.502 -136.002s-71.166 -46 -116.499 -46c-9.33301 0 -19.5 0.833008 -30.5 2.5s-22.5 4.16699 -34.5 7.5l-96 31
c-8.66699 2.66699 -17.334 4.66699 -26.001 6s-18 2 -28 2c-19.333 0 -37 -6.16699 -53 -18.5s-29 -30.166 -39 -53.499h-80c14.667 58.667 38.667 103.667 72 135s74.333 47 123 47c10.667 0 20.334 -0.666992 29.001 -2s16.667 -3.33301 24 -6l97 -31
c8 -2.66699 17 -5 27 -7s19.333 -3 28 -3c22.667 0 41.834 5.83301 57.501 17.5s28.5 29.834 38.5 54.501h82z" />
    <glyph glyph-name="ograve" unicode="&#xf2;" horiz-adv-x="1083" 
d="M174 461c0 -107.333 36 -198.333 108 -273s159 -112 261 -112c101.333 0 187.666 37.333 258.999 112s107 165.667 107 273c0 108 -35.5 199.5 -106.5 274.5s-157.5 112.5 -259.5 112.5c-103.333 0 -190.666 -37.5 -261.999 -112.5s-107 -166.5 -107 -274.5zM61 463
c0 134 46.667 247.667 140 341s207.333 140 342 140c133.333 0 246.833 -46.833 340.5 -140.5s140.5 -207.167 140.5 -340.5c0 -63.333 -12.5 -124.833 -37.5 -184.5s-60.167 -112.167 -105.5 -157.5c-46 -46 -97.667 -80.667 -155 -104s-118.333 -35 -183 -35
c-134.667 0 -248.667 46.5 -342 139.5s-140 206.833 -140 341.5zM576 1055l-269 348h152l209 -348h-92z" />
    <glyph glyph-name="oacute" unicode="&#xf3;" horiz-adv-x="1083" 
d="M174 461c0 -107.333 36 -198.333 108 -273s159 -112 261 -112c101.333 0 187.666 37.333 258.999 112s107 165.667 107 273c0 108 -35.5 199.5 -106.5 274.5s-157.5 112.5 -259.5 112.5c-103.333 0 -190.666 -37.5 -261.999 -112.5s-107 -166.5 -107 -274.5zM61 463
c0 134 46.667 247.667 140 341s207.333 140 342 140c133.333 0 246.833 -46.833 340.5 -140.5s140.5 -207.167 140.5 -340.5c0 -63.333 -12.5 -124.833 -37.5 -184.5s-60.167 -112.167 -105.5 -157.5c-46 -46 -97.667 -80.667 -155 -104s-118.333 -35 -183 -35
c-134.667 0 -248.667 46.5 -342 139.5s-140 206.833 -140 341.5zM510 1055h-92l209 348h152z" />
    <glyph glyph-name="ocircumflex" unicode="&#xf4;" horiz-adv-x="1083" 
d="M174 461c0 -107.333 36 -198.333 108 -273s159 -112 261 -112c101.333 0 187.666 37.333 258.999 112s107 165.667 107 273c0 108 -35.5 199.5 -106.5 274.5s-157.5 112.5 -259.5 112.5c-103.333 0 -190.666 -37.5 -261.999 -112.5s-107 -166.5 -107 -274.5zM61 463
c0 134 46.667 247.667 140 341s207.333 140 342 140c133.333 0 246.833 -46.833 340.5 -140.5s140.5 -207.167 140.5 -340.5c0 -63.333 -12.5 -124.833 -37.5 -184.5s-60.167 -112.167 -105.5 -157.5c-46 -46 -97.667 -80.667 -155 -104s-118.333 -35 -183 -35
c-134.667 0 -248.667 46.5 -342 139.5s-140 206.833 -140 341.5zM267 1055l200 348h152l200 -348h-92l-184 262l-184 -262h-92z" />
    <glyph glyph-name="otilde" unicode="&#xf5;" horiz-adv-x="1083" 
d="M174 461c0 -107.333 36 -198.333 108 -273s159 -112 261 -112c101.333 0 187.666 37.333 258.999 112s107 165.667 107 273c0 108 -35.5 199.5 -106.5 274.5s-157.5 112.5 -259.5 112.5c-103.333 0 -190.666 -37.5 -261.999 -112.5s-107 -166.5 -107 -274.5zM61 463
c0 134 46.667 247.667 140 341s207.333 140 342 140c133.333 0 246.833 -46.833 340.5 -140.5s140.5 -207.167 140.5 -340.5c0 -63.333 -12.5 -124.833 -37.5 -184.5s-60.167 -112.167 -105.5 -157.5c-46 -46 -97.667 -80.667 -155 -104s-118.333 -35 -183 -35
c-134.667 0 -248.667 46.5 -342 139.5s-140 206.833 -140 341.5zM832 1317c-17.333 -60 -42.1689 -105.335 -74.502 -136.002s-71.166 -46 -116.499 -46c-9.33301 0 -19.5 0.833008 -30.5 2.5s-22.5 4.16699 -34.5 7.5l-96 31c-8.66699 2.66699 -17.334 4.66699 -26.001 6
s-18 2 -28 2c-19.333 0 -37 -6.16699 -53 -18.5s-29 -30.166 -39 -53.499h-80c14.667 58.667 38.667 103.667 72 135s74.333 47 123 47c10.667 0 20.334 -0.666992 29.001 -2s16.667 -3.33301 24 -6l97 -31c8 -2.66699 17 -5 27 -7s19.333 -3 28 -3
c22.667 0 41.834 5.83301 57.501 17.5s28.5 29.834 38.5 54.501h82z" />
    <glyph glyph-name="odieresis" unicode="&#xf6;" horiz-adv-x="1083" 
d="M174 461c0 -107.333 36 -198.333 108 -273s159 -112 261 -112c101.333 0 187.666 37.333 258.999 112s107 165.667 107 273c0 108 -35.5 199.5 -106.5 274.5s-157.5 112.5 -259.5 112.5c-103.333 0 -190.666 -37.5 -261.999 -112.5s-107 -166.5 -107 -274.5zM61 463
c0 134 46.667 247.667 140 341s207.333 140 342 140c133.333 0 246.833 -46.833 340.5 -140.5s140.5 -207.167 140.5 -340.5c0 -63.333 -12.5 -124.833 -37.5 -184.5s-60.167 -112.167 -105.5 -157.5c-46 -46 -97.667 -80.667 -155 -104s-118.333 -35 -183 -35
c-134.667 0 -248.667 46.5 -342 139.5s-140 206.833 -140 341.5zM633 1130v164h141v-164h-141zM312 1130v164h141v-164h-141z" />
    <glyph glyph-name="divide" unicode="&#xf7;" horiz-adv-x="1706" 
d="M854 365c27.333 0 50.5 -9.83301 69.5 -29.5s28.5 -43.5 28.5 -71.5c0 -26.667 -9.5 -49.667 -28.5 -69s-42.167 -29 -69.5 -29s-50.5 9.5 -69.5 28.5s-28.5 42.167 -28.5 69.5s9.66699 51 29 71s42.333 30 69 30zM1452 651v-82h-1198v82h1198zM854 1055
c27.333 0 50.5 -9.49902 69.5 -28.499s28.5 -42.5 28.5 -70.5c0 -26.667 -9.5 -50 -28.5 -70s-42.167 -30 -69.5 -30s-50.5 9.83301 -69.5 29.5s-28.5 43.167 -28.5 70.5s9.5 50.666 28.5 69.999s42.167 29 69.5 29z" />
    <glyph glyph-name="oslash" unicode="&#xf8;" horiz-adv-x="1083" 
d="M819 715l-501.998 -559c33.333 -27.333 68.5 -47.5 105.5 -60.5s77.167 -19.5 120.5 -19.5c101.333 0 187.666 37.333 258.999 112s107 165.667 107 273c0 46 -7.33301 89.833 -22 131.5s-37.334 82.5 -68.001 122.5zM256.002 217l502 555
c-29.333 26 -61.333 45.167 -96 57.5s-74.334 18.5 -119.001 18.5c-103.333 0 -190.666 -37.5 -261.999 -112.5s-107 -166.5 -107 -274.5c0 -48 6.66699 -91.833 20 -131.5s34 -77.167 62 -112.5zM66.002 6l120 132.999c-42 46.667 -73.333 95.834 -94 147.501
s-31 107.834 -31 168.501c0 139.333 46.667 255.666 140 348.999s210 140 350 140c52 0 100.833 -7.5 146.5 -22.5s88.834 -38.167 129.501 -69.5l117 129l64 -57l-117 -131c44.667 -50.667 78 -103 100 -157s33 -111.667 33 -173c0 -63.333 -12.5 -124.833 -37.5 -184.5
s-60.167 -112.167 -105.5 -157.5s-96.833 -79.833 -154.5 -103.5s-118.834 -35.5 -183.501 -35.5c-54 0 -105 8 -153 24s-95.333 40.667 -142 74l-119 -131z" />
    <glyph glyph-name="ugrave" unicode="&#xf9;" horiz-adv-x="991" 
d="M766 143c-44 -54 -92.5 -94.334 -145.5 -121.001s-111.167 -40 -174.5 -40c-104.667 0 -185.334 32.333 -242.001 97s-85 157 -85 277v568h102v-518c0 -111.333 19.5 -194.166 58.5 -248.499s98.167 -81.5 177.5 -81.5c64 0 121.833 16 173.5 48s96.834 80 135.501 144
v656h102v-924h-102v143zM520 1055l-269 348h152l209 -348h-92z" />
    <glyph glyph-name="uacute" unicode="&#xfa;" horiz-adv-x="991" 
d="M766 143c-44 -54 -92.5 -94.334 -145.5 -121.001s-111.167 -40 -174.5 -40c-104.667 0 -185.334 32.333 -242.001 97s-85 157 -85 277v568h102v-518c0 -111.333 19.5 -194.166 58.5 -248.499s98.167 -81.5 177.5 -81.5c64 0 121.833 16 173.5 48s96.834 80 135.501 144
v656h102v-924h-102v143zM454 1055h-92l209 348h152z" />
    <glyph glyph-name="ucircumflex" unicode="&#xfb;" horiz-adv-x="991" 
d="M766 143c-44 -54 -92.5 -94.334 -145.5 -121.001s-111.167 -40 -174.5 -40c-104.667 0 -185.334 32.333 -242.001 97s-85 157 -85 277v568h102v-518c0 -111.333 19.5 -194.166 58.5 -248.499s98.167 -81.5 177.5 -81.5c64 0 121.833 16 173.5 48s96.834 80 135.501 144
v656h102v-924h-102v143zM211 1055l200 348h152l200 -348h-92l-184 262l-184 -262h-92z" />
    <glyph glyph-name="udieresis" unicode="&#xfc;" horiz-adv-x="991" 
d="M766 143c-44 -54 -92.5 -94.334 -145.5 -121.001s-111.167 -40 -174.5 -40c-104.667 0 -185.334 32.333 -242.001 97s-85 157 -85 277v568h102v-518c0 -111.333 19.5 -194.166 58.5 -248.499s98.167 -81.5 177.5 -81.5c64 0 121.833 16 173.5 48s96.834 80 135.501 144
v656h102v-924h-102v143zM577 1130v164h141v-164h-141zM256 1130v164h141v-164h-141z" />
    <glyph glyph-name="yacute" unicode="&#xfd;" horiz-adv-x="864" 
d="M397 180l-387 744h115l328 -629l307 629h106l-680 -1389h-104zM399 1055h-92l209 348h152z" />
    <glyph glyph-name="thorn" unicode="&#xfe;" horiz-adv-x="1006" 
d="M231 743v-565.002c34 -35.333 71.167 -61.5 111.5 -78.5s85.833 -25.5 136.5 -25.5c103.333 0 187.5 35.833 252.5 107.5s97.5 164.834 97.5 279.501s-32.5 207.834 -97.5 279.501s-149.167 107.5 -252.5 107.5c-50.667 0 -96.167 -8.5 -136.5 -25.5
s-77.5 -43.5 -111.5 -79.5zM133 -465.002l-0.000976562 1864h98v-541c36.667 28.667 76.834 49.834 120.501 63.501s93.167 20.5 148.5 20.5c130.667 0 237.334 -44.5 320.001 -133.5s124 -204.167 124 -345.5s-41.333 -256.5 -124 -345.5s-189.334 -133.5 -320.001 -133.5
c-56.667 0 -106.667 6.5 -150 19.5s-83 33.833 -119 62.5v-531h-98z" />
    <glyph glyph-name="ydieresis" unicode="&#xff;" horiz-adv-x="864" 
d="M397 180l-387 744h115l328 -629l307 629h106l-680 -1389h-104zM522 1130v164h141v-164h-141zM201 1130v164h141v-164h-141z" />
    <glyph glyph-name="Cacute" unicode="&#x106;" horiz-adv-x="1391" 
d="M1327 104c-83.333 -42.667 -165.668 -74.833 -247.001 -96.5s-162 -32.5 -242 -32.5c-80.667 0 -157.167 10.5 -229.5 31.5s-139.833 52.167 -202.5 93.5c-102.667 66.667 -182.334 153 -239.001 259s-85 221.333 -85 346c0 94 18.667 185.167 56 273.5
s90.333 165.5 159 231.5c72 70 153.833 123 245.5 159s190.167 54 295.5 54c76.667 0 155.667 -10.833 237 -32.5s165.333 -54.5 252 -98.5v-116c-94 50 -181.333 87 -262 111s-157.667 36 -231 36c-65.333 0 -127.666 -8.83301 -186.999 -26.5s-115.333 -43.5 -168 -77.5
c-86.667 -58.667 -154 -133.167 -202 -223.5s-72 -188.833 -72 -295.5c0 -82 15.5 -161.5 46.5 -238.5s74.833 -144.833 131.5 -203.5s123.834 -103.667 201.501 -135s160.834 -47 249.501 -47c72.667 0 149.167 12 229.5 36s168.166 61 263.499 111v-119zM775.998 1534h-92
l209 348h152z" />
    <glyph glyph-name="cacute" unicode="&#x107;" horiz-adv-x="825" 
d="M788 37c-38 -18.667 -76.166 -32.501 -114.499 -41.501s-77.833 -13.5 -118.5 -13.5c-142 0 -258.667 45 -350 135s-137 205.333 -137 346c0 136.667 47 251 141 343s212 138 354 138c34.667 0 69.167 -3.33301 103.5 -10s68.833 -17 103.5 -31v-115
c-35.333 20.667 -71 35.834 -107 45.501s-74 14.5 -114 14.5c-102.667 0 -189.834 -37.5 -261.501 -112.5s-107.5 -166.5 -107.5 -274.5c0 -108.667 35.667 -200 107 -274s158.666 -111 261.999 -111c38.667 0 77.834 6.33301 117.501 19s80.167 31.667 121.5 57v-115z
M475.001 1055h-92l209 348h152z" />
    <glyph glyph-name="Ccaron" unicode="&#x10c;" horiz-adv-x="1391" 
d="M1327 104c-83.333 -42.667 -165.668 -74.833 -247.001 -96.5s-162 -32.5 -242 -32.5c-80.667 0 -157.167 10.5 -229.5 31.5s-139.833 52.167 -202.5 93.5c-102.667 66.667 -182.334 153 -239.001 259s-85 221.333 -85 346c0 94 18.667 185.167 56 273.5
s90.333 165.5 159 231.5c72 70 153.833 123 245.5 159s190.167 54 295.5 54c76.667 0 155.667 -10.833 237 -32.5s165.333 -54.5 252 -98.5v-116c-94 50 -181.333 87 -262 111s-157.667 36 -231 36c-65.333 0 -127.666 -8.83301 -186.999 -26.5s-115.333 -43.5 -168 -77.5
c-86.667 -58.667 -154 -133.167 -202 -223.5s-72 -188.833 -72 -295.5c0 -82 15.5 -161.5 46.5 -238.5s74.833 -144.833 131.5 -203.5s123.834 -103.667 201.501 -135s160.834 -47 249.501 -47c72.667 0 149.167 12 229.5 36s168.166 61 263.499 111v-119zM1085 1882
l-200 -348h-152l-200 348h92l184 -262l184 262h92z" />
    <glyph glyph-name="ccaron" unicode="&#x10d;" horiz-adv-x="825" 
d="M788 37c-38 -18.667 -76.166 -32.501 -114.499 -41.501s-77.833 -13.5 -118.5 -13.5c-142 0 -258.667 45 -350 135s-137 205.333 -137 346c0 136.667 47 251 141 343s212 138 354 138c34.667 0 69.167 -3.33301 103.5 -10s68.833 -17 103.5 -31v-115
c-35.333 20.667 -71 35.834 -107 45.501s-74 14.5 -114 14.5c-102.667 0 -189.834 -37.5 -261.501 -112.5s-107.5 -166.5 -107.5 -274.5c0 -108.667 35.667 -200 107 -274s158.666 -111 261.999 -111c38.667 0 77.834 6.33301 117.501 19s80.167 31.667 121.5 57v-115z
M784.001 1403l-200 -348h-152l-200 348h92l184 -262l184 262h92z" />
    <glyph glyph-name="dcroat" unicode="&#x111;" horiz-adv-x="1006" 
d="M772 180l0.000976562 567.999c-35.333 36 -72.833 62.333 -112.5 79s-84.834 25 -135.501 25c-102.667 0 -186.334 -35.667 -251.001 -107s-97 -164.666 -97 -279.999s32.333 -208.666 97 -279.999s148.334 -107 251.001 -107c52 0 97.667 8.16699 137 24.5
s76.333 42.166 111 77.499zM772.001 67.999c-37.333 -28.667 -77.333 -49.832 -120 -63.499s-89.334 -20.5 -140.001 -20.5c-134 0 -243 44.333 -327 133s-126 204 -126 346s42 257.333 126 346s193 133 327 133c50.667 0 97.334 -6.83301 140.001 -20.5
s82.667 -34.834 120 -63.501v262h-295v82h295v197h100v-197h150v-82h-150v-1120h-100v68z" />
    <glyph glyph-name="Gbreve" unicode="&#x11e;" horiz-adv-x="1464" 
d="M1327 104c-86 -43.333 -169.334 -75.668 -250.001 -97.001s-160.334 -32 -239.001 -32c-80.667 0 -157.167 10.5 -229.5 31.5s-139.833 52.167 -202.5 93.5c-102.667 66.667 -182.334 153 -239.001 259s-85 221.333 -85 346c0 94 18.667 185.167 56 273.5
s90.333 165.5 159 231.5c72 70.667 153.667 123.834 245 159.501s190 53.5 296 53.5c78 0 157.5 -10.833 238.5 -32.5s164.5 -54.5 250.5 -98.5v-116c-94 50 -181.333 87 -262 111s-157.667 36 -231 36c-65.333 0 -127.666 -8.83301 -186.999 -26.5
s-115.333 -43.5 -168 -77.5c-86.667 -58.667 -154 -133.167 -202 -223.5s-72 -188.833 -72 -295.5c0 -82 15.5 -161.5 46.5 -238.5s74.833 -144.833 131.5 -203.5s123.834 -103.667 201.501 -135s161.5 -47 251.5 -47c58 0 118.833 7.66699 182.5 23
s129.834 38.333 198.501 69v377h-295v98h405v-539zM458.999 1839l78.998 -0.000976562c4.66699 -50.667 22.667 -88 54 -112s78.333 -36 141 -36s109.334 11.833 140.001 35.5s48.334 61.167 53.001 112.5l81 -2c-6 -91.333 -30.833 -157.833 -74.5 -199.5
s-110.167 -62.5 -199.5 -62.5c-88 0 -154.167 21.333 -198.5 64s-69.5 109.334 -75.5 200.001z" />
    <glyph glyph-name="gbreve" unicode="&#x11f;" horiz-adv-x="858" 
d="M430 -45c-105.333 0 -183.499 -14.668 -234.499 -44.001s-76.5 -74 -76.5 -134c0 -50.667 26.5 -90 79.5 -118s127.5 -42 223.5 -42c105.333 0 185.166 14.833 239.499 44.5s81.5 73.5 81.5 131.5c0 54.667 -25.5 95.334 -76.5 122.001s-129.833 40 -236.5 40z
M180.001 593.999c0 -66 23.5 -122.169 70.5 -168.502s104.167 -69.5 171.5 -69.5c66.667 0 123.334 23.333 170.001 70s70 103.334 70 170.001s-23.333 123.334 -70 170.001s-103.334 70 -170.001 70s-123.667 -23.667 -171 -71s-71 -104.333 -71 -171zM307.001 288.997
c-75.333 29.333 -132.331 70.0039 -170.998 122.004s-58 113.667 -58 185c0 57.333 14.333 110.166 43 158.499s69.667 89.166 123 122.499c27.333 16.667 58.666 28.667 93.999 36s90.666 11 165.999 11h344v-88h-197c38 -35.333 66 -72.333 84 -111s27 -81.667 27 -129
c0 -82.667 -24.167 -150.667 -72.5 -204s-123.5 -94.666 -225.5 -123.999c-16 -4.66699 -38.667 -10.667 -68 -18c-106.667 -26.667 -160 -64.334 -160 -113.001c0 -45.333 73.333 -75 220 -89l11 -1c144 -14 242.5 -39.333 295.5 -76s79.5 -94 79.5 -172
c0 -89.333 -35 -156 -105 -200s-176.333 -66 -319 -66c-128 0 -225.833 21.167 -293.5 63.5s-101.5 103.166 -101.5 182.499c0 60 21.833 110.167 65.5 150.5s104.167 65.833 181.5 76.5c-40.667 9.33301 -72 25.166 -94 47.499s-33 49.5 -33 81.5
c0 34.667 14.333 65.5 43 92.5s69 47.5 121 61.5zM156.003 1360l78.998 -0.000976562c4.66699 -50.667 22.667 -88 54 -112s78.333 -36 141 -36s109.334 11.833 140.001 35.5s48.334 61.167 53.001 112.5l81 -2c-6 -91.333 -30.833 -157.833 -74.5 -199.5
s-110.167 -62.5 -199.5 -62.5c-88 0 -154.167 21.333 -198.5 64s-69.5 109.334 -75.5 200.001z" />
    <glyph glyph-name="Idotaccent" unicode="&#x130;" horiz-adv-x="463" 
d="M170 0v1399h121v-1399h-121zM155 1605v174h152v-174h-152z" />
    <glyph glyph-name="dotlessi" unicode="&#x131;" horiz-adv-x="365" 
d="M131 0v924h105v-924h-105z" />
    <glyph glyph-name="Lslash" unicode="&#x141;" horiz-adv-x="979" 
d="M180 0v612l-180 -125v109l180 127v676h117v-611l348 244v-110l-348 -244v-584h657v-94h-774z" />
    <glyph glyph-name="lslash" unicode="&#x142;" horiz-adv-x="383" 
d="M139 0v651l-139 -98v98l139 99v649h105v-598l139 96v-96l-139 -99v-702h-105z" />
    <glyph glyph-name="OE" unicode="&#x152;" horiz-adv-x="1851" 
d="M1003 96l1 1209c-15.333 1.33301 -31.5 2.33301 -48.5 3s-41.833 1 -74.5 1c-215.333 0 -379.166 -52 -491.499 -156s-168.5 -255 -168.5 -453c0 -197.333 56.167 -347.666 168.5 -450.999s276.166 -155 491.499 -155h59c17.333 0 30.333 0.166992 39 0.5
s16.667 0.833008 24 1.5zM1778 -0.000976562l-891 -0.000976562c-131.333 0 -230.5 7 -297.5 21s-126.167 37 -177.5 69c-101.333 62 -179 145.333 -233 250s-81 224 -81 358c0 134.667 27 254.334 81 359.001s131.667 188 233 250c54 32.667 115.667 56.167 185 70.5
s172 21.5 308 21.5h99h757v-90h-645v-555h625v-90h-625v-570h662v-94z" />
    <glyph glyph-name="oe" unicode="&#x153;" horiz-adv-x="1819" 
d="M1022 582l598 -0.000976562c-10 80 -41.5 145 -94.5 195s-116.5 75 -190.5 75c-80.667 0 -148.5 -23.667 -203.5 -71s-91.5 -113.666 -109.5 -198.999zM174 460.999c0 -107.333 36 -198.333 108 -273s159 -112 261 -112c101.333 0 187.666 37.333 258.999 112
s107 165.667 107 273c0 108 -35.5 199.5 -106.5 274.5s-157.5 112.5 -259.5 112.5c-103.333 0 -190.666 -37.5 -261.999 -112.5s-107 -166.5 -107 -274.5zM961 226.999c-53.333 -82 -114.836 -143.333 -184.503 -184s-147.5 -61 -233.5 -61
c-134.667 0 -248.667 46.5 -342 139.5s-140 206.833 -140 341.5c0 134 46.667 247.667 140 341s207.333 140 342 140c86.667 0 165.334 -20.5 236.001 -61.5s129.667 -100.167 177 -177.5c42 78.667 94.833 137.5 158.5 176.5s138.5 58.5 224.5 58.5
c120 0 216.667 -40.333 290 -121s110 -187.667 110 -321h-721v-13c0 -121.333 32.667 -219.833 98 -295.5s150 -113.5 254 -113.5c58 0 115.333 11.167 172 33.5s116.667 57.5 180 105.5v-115c-57.333 -40 -114.666 -69.667 -171.999 -89s-117.333 -29 -180 -29
c-94.667 0 -176.667 20.667 -246 62s-123.666 102.333 -162.999 183z" />
    <glyph glyph-name="Scedilla" unicode="&#x15e;" horiz-adv-x="938" 
d="M823 1200c-58 39.333 -113.166 68.3379 -165.499 87.0049s-104.166 28 -155.499 28c-84.667 0 -154 -24.833 -208 -74.5s-81 -112.167 -81 -187.5c0 -61.333 17.333 -111.333 52 -150s109.334 -82.334 224.001 -131.001l30 -12
c129.333 -52.667 215.666 -103.334 258.999 -152.001c30 -32.667 52.833 -70 68.5 -112s23.5 -86.667 23.5 -134c0 -111.333 -38.667 -202.833 -116 -274.5s-176.333 -107.5 -297 -107.5c-60.667 0 -120.834 10.333 -180.501 31s-119.834 51.667 -180.501 93v136
c66 -51.333 128.5 -89.5 187.5 -114.5s116.167 -37.5 171.5 -37.5c91.333 0 163.666 25 216.999 75s80 118 80 204c0 63.333 -18.167 115.166 -54.5 155.499s-119.166 87.5 -248.499 141.5c-134 55.333 -225.667 111.166 -275 167.499s-74 128.166 -74 215.499
c0 108.667 37.5 197.5 112.5 266.5s172.833 103.5 293.5 103.5c54.667 0 108 -7.5 160 -22.5s104.333 -38.167 157 -69.5v-125zM229.001 -419.995l-0.000976562 78c51.333 -12 96.666 -20.833 135.999 -26.5s73.333 -8.5 102 -8.5c42.667 0 74.834 7.5 96.501 22.5
s32.5 37.5 32.5 67.5c0 36.667 -11.5 63.334 -34.5 80.001s-59.167 25 -108.5 25c-12.667 0 -22.167 -0.166992 -28.5 -0.5s-12.5 -0.833008 -18.5 -1.5v184h63v-111h14c73.333 0 129.333 -14.667 168 -44s58 -72 58 -128c0 -56.667 -19.667 -100.167 -59 -130.5
s-95.666 -45.5 -168.999 -45.5c-38 0 -77.5 3.16699 -118.5 9.5s-85.5 16.166 -133.5 29.499z" />
    <glyph glyph-name="scedilla" unicode="&#x15f;" horiz-adv-x="711" 
d="M70 168c46.667 -31.333 92.667 -54.4951 138 -69.4951s91.333 -22.5 138 -22.5c59.333 0 106 14 140 42s51 66.333 51 115c0 71.333 -62 129.666 -186 174.999l-75 28c-68 26.667 -119 61.167 -153 103.5s-51 92.5 -51 150.5c0 74.667 27.167 135.667 81.5 183
s124.833 71 211.5 71c39.333 0 79.833 -6.33301 121.5 -19s84.834 -32.334 129.501 -59.001v-106c-46.667 30 -91.334 52.5 -134.001 67.5s-84 22.5 -124 22.5c-54.667 0 -99.667 -14.833 -135 -44.5s-53 -67.5 -53 -113.5c0 -40.667 16.167 -74.834 48.5 -102.501
s92.5 -56.834 180.5 -87.501c93.333 -32.667 157.333 -68.167 192 -106.5s52 -88.833 52 -151.5c0 -82 -27.167 -146.5 -81.5 -193.5s-128.833 -70.5 -223.5 -70.5c-48 0 -93.833 6.66699 -137.5 20s-87.167 33.666 -130.5 60.999v107zM116 -419.995l-0.000976562 78
c51.333 -12 96.666 -20.833 135.999 -26.5s73.333 -8.5 102 -8.5c42.667 0 74.834 7.5 96.501 22.5s32.5 37.5 32.5 67.5c0 36.667 -11.5 63.334 -34.5 80.001s-59.167 25 -108.5 25c-12.667 0 -22.167 -0.166992 -28.5 -0.5s-12.5 -0.833008 -18.5 -1.5v184h63v-111h14
c73.333 0 129.333 -14.667 168 -44s58 -72 58 -128c0 -56.667 -19.667 -100.167 -59 -130.5s-95.666 -45.5 -168.999 -45.5c-38 0 -77.5 3.16699 -118.5 9.5s-85.5 16.166 -133.5 29.499z" />
    <glyph glyph-name="Scaron" unicode="&#x160;" horiz-adv-x="938" 
d="M823 1200c-58 39.333 -113.166 68.3379 -165.499 87.0049s-104.166 28 -155.499 28c-84.667 0 -154 -24.833 -208 -74.5s-81 -112.167 -81 -187.5c0 -61.333 17.333 -111.333 52 -150s109.334 -82.334 224.001 -131.001l30 -12
c129.333 -52.667 215.666 -103.334 258.999 -152.001c30 -32.667 52.833 -70 68.5 -112s23.5 -86.667 23.5 -134c0 -111.333 -38.667 -202.833 -116 -274.5s-176.333 -107.5 -297 -107.5c-60.667 0 -120.834 10.333 -180.501 31s-119.834 51.667 -180.501 93v136
c66 -51.333 128.5 -89.5 187.5 -114.5s116.167 -37.5 171.5 -37.5c91.333 0 163.666 25 216.999 75s80 118 80 204c0 63.333 -18.167 115.166 -54.5 155.499s-119.166 87.5 -248.499 141.5c-134 55.333 -225.667 111.166 -275 167.499s-74 128.166 -74 215.499
c0 108.667 37.5 197.5 112.5 266.5s172.833 103.5 293.5 103.5c54.667 0 108 -7.5 160 -22.5s104.333 -38.167 157 -69.5v-125zM745.001 1882l-200 -348h-152l-200 348h92l184 -262l184 262h92z" />
    <glyph glyph-name="scaron" unicode="&#x161;" horiz-adv-x="711" 
d="M70 168c46.667 -31.333 92.667 -54.4951 138 -69.4951s91.333 -22.5 138 -22.5c59.333 0 106 14 140 42s51 66.333 51 115c0 71.333 -62 129.666 -186 174.999l-75 28c-68 26.667 -119 61.167 -153 103.5s-51 92.5 -51 150.5c0 74.667 27.167 135.667 81.5 183
s124.833 71 211.5 71c39.333 0 79.833 -6.33301 121.5 -19s84.834 -32.334 129.501 -59.001v-106c-46.667 30 -91.334 52.5 -134.001 67.5s-84 22.5 -124 22.5c-54.667 0 -99.667 -14.833 -135 -44.5s-53 -67.5 -53 -113.5c0 -40.667 16.167 -74.834 48.5 -102.501
s92.5 -56.834 180.5 -87.501c93.333 -32.667 157.333 -68.167 192 -106.5s52 -88.833 52 -151.5c0 -82 -27.167 -146.5 -81.5 -193.5s-128.833 -70.5 -223.5 -70.5c-48 0 -93.833 6.66699 -137.5 20s-87.167 33.666 -130.5 60.999v107zM632 1403l-200 -348h-152l-200 348h92
l184 -262l184 262h92z" />
    <glyph glyph-name="Ydieresis" unicode="&#x178;" horiz-adv-x="1114" 
d="M500 0v750l-543 649h139l461 -553l461 553h139l-543 -649v-750h-114zM647 1609v164h141v-164h-141zM326 1609v164h141v-164h-141z" />
    <glyph glyph-name="Zcaron" unicode="&#x17d;" horiz-adv-x="1280" 
d="M18 0v47l1051 1260h-991v92h1173v-43l-1046 -1258h1046v-98h-1233zM917 1882l-200 -348h-152l-200 348h92l184 -262l184 262h92z" />
    <glyph glyph-name="zcaron" unicode="&#x17e;" horiz-adv-x="844" 
d="M23 0v39l604 786h-561v99h731v-41l-604 -787h604v-96h-774zM698 1403l-200 -348h-152l-200 348h92l184 -262l184 262h92z" />
    <glyph glyph-name="florin" unicode="&#x192;" horiz-adv-x="1034" 
d="M10 -307c18 -7.33301 34.999 -12.667 50.999 -16s32 -5 48 -5c101.333 0 170 114.667 206 344l2 13l121 768h-176l14 94h177l10 74c24 174 60.167 293.833 108.5 359.5s119.833 98.5 214.5 98.5c16.667 0 34.834 -1.5 54.501 -4.5s41.167 -7.5 64.5 -13.5l-16 -107
c-24 8 -43.833 13.5 -59.5 16.5s-30.167 4.5 -43.5 4.5c-58.667 0 -102 -19.833 -130 -59.5s-53.333 -138.5 -76 -296.5l-11 -72h187l-15 -94h-188l-119 -770c-28 -180.667 -65.5 -302 -112.5 -364s-117.167 -93 -210.5 -93c-16.667 0 -34.667 1.5 -54 4.5
s-40.333 7.83301 -63 14.5z" />
    <glyph glyph-name="circumflex" unicode="&#x2c6;" 
d="M236 1055l200 348h152l200 -348h-92l-184 262l-184 -262h-92z" />
    <glyph glyph-name="caron" unicode="&#x2c7;" 
d="M788 1403l-200 -348h-152l-200 348h92l184 -262l184 262h92z" />
    <glyph glyph-name="breve" unicode="&#x2d8;" 
d="M238 1360l78.998 -0.000976562c4.66699 -50.667 22.667 -88 54 -112s78.333 -36 141 -36s109.334 11.833 140.001 35.5s48.334 61.167 53.001 112.5l81 -2c-6 -91.333 -30.833 -157.833 -74.5 -199.5s-110.167 -62.5 -199.5 -62.5c-88 0 -154.167 21.333 -198.5 64
s-69.5 109.334 -75.5 200.001z" />
    <glyph glyph-name="dotaccent" unicode="&#x2d9;" 
d="M436 1126v174h152v-174h-152z" />
    <glyph glyph-name="ring" unicode="&#x2da;" 
d="M362 1276c0 -42 14.501 -77.499 43.501 -106.499s64.5 -43.5 106.5 -43.5c41.333 0 76.666 14.667 105.999 44s44 64.666 44 105.999c0 42 -14.5 77.333 -43.5 106s-64.5 43 -106.5 43s-77.5 -14.333 -106.5 -43s-43.5 -64 -43.5 -106zM272.001 1276
c0 68 23.167 125.333 69.5 172s103.166 70 170.499 70s124.5 -23.5 171.5 -70.5s70.5 -104.167 70.5 -171.5s-23.333 -124.166 -70 -170.499s-104 -69.5 -172 -69.5c-67.333 0 -124.166 23.167 -170.499 69.5s-69.5 103.166 -69.5 170.499z" />
    <glyph glyph-name="ogonek" unicode="&#x2db;" 
d="M563 0c-47.333 -41.333 -82.999 -81.834 -106.999 -121.501s-36 -77.834 -36 -114.501c0 -30.667 8.16699 -52.667 24.5 -66s44.166 -20 83.499 -20h76v-104h-74c-71.333 0 -124.333 13.333 -159 40s-52 67.334 -52 122.001c0 40 15.667 82.333 47 127
s77.333 90.334 138 137.001h59z" />
    <glyph glyph-name="tilde" unicode="&#x2dc;" 
d="M801 1317c-17.333 -60 -42.1689 -105.335 -74.502 -136.002s-71.166 -46 -116.499 -46c-9.33301 0 -19.5 0.833008 -30.5 2.5s-22.5 4.16699 -34.5 7.5l-96 31c-8.66699 2.66699 -17.334 4.66699 -26.001 6s-18 2 -28 2c-19.333 0 -37 -6.16699 -53 -18.5
s-29 -30.166 -39 -53.499h-80c14.667 58.667 38.667 103.667 72 135s74.333 47 123 47c10.667 0 20.334 -0.666992 29.001 -2s16.667 -3.33301 24 -6l97 -31c8 -2.66699 17 -5 27 -7s19.333 -3 28 -3c22.667 0 41.834 5.83301 57.501 17.5s28.5 29.834 38.5 54.501h82z" />
    <glyph glyph-name="hungarumlaut" unicode="&#x2dd;" 
d="M571 1055l168 348h133l-227 -348h-74zM336 1055l149 348h133l-208 -348h-74z" />
    <glyph glyph-name="Omega" unicode="&#x3a9;" horiz-adv-x="1585" 
d="M1452 121v-121h-573v102c145.333 90.667 254.666 193.167 327.999 307.5s110 239.833 110 376.5c0 179.333 -48.833 325.333 -146.5 438s-223.5 169 -377.5 169s-280 -56.333 -378 -169s-147 -258.667 -147 -438c0 -136.667 36.667 -262.167 110 -376.5
s183 -216.833 329 -307.5v-102h-572v121h354c-122 88 -212.5 186.5 -271.5 295.5s-88.5 232.167 -88.5 369.5c0 211.333 62.833 385.333 188.5 522s284.167 205 475.5 205c190.667 0 348.834 -68.333 474.501 -205s188.5 -310.667 188.5 -522
c0 -137.333 -29.5 -260.5 -88.5 -369.5s-149.5 -207.5 -271.5 -295.5h356z" />
    <glyph glyph-name="pi" unicode="&#x3c0;" horiz-adv-x="1155" 
d="M1102 958l-182.002 0.00195312l-119 -565c-9.33301 -41.333 -16.5 -78.333 -21.5 -111s-7.5 -58.334 -7.5 -77.001c0 -39.333 8.16699 -67 24.5 -83s44.5 -24 84.5 -24c18 0 34.5 0.833008 49.5 2.5s29.167 4.16699 42.5 7.5l-25 -108
c-19.333 -6 -36.666 -10.167 -51.999 -12.5s-30 -3.5 -44 -3.5c-61.333 0 -109.833 18 -145.5 54s-53.5 85.333 -53.5 148c0 31.333 3.83301 72.166 11.5 122.499s22.5 126.5 44.5 228.5l88 421h-381l-203 -958h-121l201 958h-39c-36.667 0 -65.167 -10.667 -85.5 -32
s-34.166 -55 -41.499 -101h-121c16.667 90 45 152.167 85 186.5s108.667 51.5 206 51.5h829z" />
    <glyph glyph-name="endash" unicode="&#x2013;" 
d="M0 426v72h1024v-72h-1024z" />
    <glyph glyph-name="emdash" unicode="&#x2014;" horiz-adv-x="2048" 
d="M0 426v72h2048v-72h-2048z" />
    <glyph glyph-name="quoteleft" unicode="&#x2018;" horiz-adv-x="426" 
d="M223 1184h58v-205h-134v154c0 73.333 10.167 131.333 30.5 174s54.833 80.667 103.5 114v-80c-20 -14.667 -34.667 -33.5 -44 -56.5s-14 -52.5 -14 -88.5v-12z" />
    <glyph glyph-name="quoteright" unicode="&#x2019;" horiz-adv-x="426" 
d="M203 1194l-56 -0.00195312v205h134v-154c0 -74 -10.167 -132.667 -30.5 -176s-54.833 -81.666 -103.5 -114.999v82c19.333 14.667 33.5 33.334 42.5 56.001s13.5 52 13.5 88v14z" />
    <glyph glyph-name="quotesinglbase" unicode="&#x201a;" horiz-adv-x="426" 
d="M203 0l-56 -0.000976562v205h134v-154c0 -74 -10.167 -132.667 -30.5 -176s-54.833 -81.666 -103.5 -114.999v80c19.333 14.667 33.5 33.5 42.5 56.5s13.5 52.833 13.5 89.5v14z" />
    <glyph glyph-name="quotedblleft" unicode="&#x201c;" horiz-adv-x="698" 
d="M223 1184h58v-205h-134v154c0 73.333 10.167 131.333 30.5 174s54.833 80.667 103.5 114v-80c-20 -14.667 -34.667 -33.5 -44 -56.5s-14 -52.5 -14 -88.5v-12zM496 1184h55v-205h-133v154c0 73.333 10 131.333 30 174s54.333 80.667 103 114v-80
c-19.333 -14 -33.333 -32.333 -42 -55s-13 -52 -13 -88v-14z" />
    <glyph glyph-name="quotedblright" unicode="&#x201d;" horiz-adv-x="698" 
d="M203 1194l-56 -0.00195312v205h134v-154c0 -74 -10.167 -132.667 -30.5 -176s-54.833 -81.666 -103.5 -114.999v82c19.333 14.667 33.5 33.334 42.5 56.001s13.5 52 13.5 88v14zM473 1194l-55 -0.00195312v205h133v-154c0 -74 -10.167 -132.667 -30.5 -176
s-54.5 -81.666 -102.5 -114.999v82c19.333 14.667 33.333 33.334 42 56.001s13 52 13 88v14z" />
    <glyph glyph-name="quotedblbase" unicode="&#x201e;" horiz-adv-x="698" 
d="M473 0l-55 -0.000976562v205h133v-154c0 -74 -10.167 -132.667 -30.5 -176s-54.5 -81.666 -102.5 -114.999v80c19.333 14.667 33.333 33.5 42 56.5s13 52.833 13 89.5v14zM203 -0.000976562l-56 -0.000976562v205h134v-154c0 -74 -10.167 -132.667 -30.5 -176
s-54.833 -81.666 -103.5 -114.999v80c19.333 14.667 33.5 33.5 42.5 56.5s13.5 52.833 13.5 89.5v14z" />
    <glyph glyph-name="dagger" unicode="&#x2020;" horiz-adv-x="1034" 
d="M481 836l-415 -37v145l415 -37l-37 492h146l-39 -492l418 37v-145l-418 37l39 -1020h-146z" />
    <glyph glyph-name="daggerdbl" unicode="&#x2021;" horiz-adv-x="1034" 
d="M444 606l37 303l-397 -37v146l397 -37l-37 418h146l-39 -418l399 37v-146l-399 37l39 -303l-39 -303l399 39v-147l-399 38l39 -417h-146l37 417l-397 -38v147l397 -39z" />
    <glyph glyph-name="bullet" unicode="&#x2022;" horiz-adv-x="1208" 
d="M307 762c0 82 28.999 151.666 86.999 208.999s128 86 210 86c81.333 0 150.833 -28.833 208.5 -86.5s86.5 -127.167 86.5 -208.5s-29.167 -151.166 -87.5 -209.499s-128.166 -87.5 -209.499 -87.5c-82 0 -151.667 29 -209 87s-86 128 -86 210z" />
    <glyph glyph-name="ellipsis" unicode="&#x2026;" horiz-adv-x="2048" 
d="M277 0v205h133v-205h-133zM959 0v205h133v-205h-133zM1643 0v205h133v-205h-133z" />
    <glyph glyph-name="perthousand" unicode="&#x2030;" horiz-adv-x="2650" 
d="M1915 354c0 -78.667 27 -145.333 81 -200s120.333 -82 199 -82c78 0 144.333 27.333 199 82s82 121.334 82 200.001c0 79.333 -27.333 146.666 -82 201.999s-121 83 -199 83s-144.167 -27.5 -198.5 -82.5s-81.5 -122.5 -81.5 -202.5zM1817 354.001
c0 106 36.667 196 110 270s162.666 111 267.999 111s194.833 -37 268.5 -111s110.5 -164 110.5 -270c0 -105.333 -36.667 -194.833 -110 -268.5s-163 -110.5 -269 -110.5c-105.333 0 -194.666 36.833 -267.999 110.5s-110 163.167 -110 268.5zM1036 354.001
c0 -79.333 26.832 -146.167 80.499 -200.5s119.834 -81.5 198.501 -81.5c78 0 144.167 27.333 198.5 82s81.5 121.334 81.5 200.001c0 79.333 -27.167 146.666 -81.5 201.999s-120.5 83 -198.5 83s-144 -27.5 -198 -82.5s-81 -122.5 -81 -202.5zM935.999 354
c0 106 36.833 196 110.5 270s163.167 111 268.5 111s195.166 -37 269.499 -111s111.5 -164 111.5 -270c0 -105.333 -37.167 -194.833 -111.5 -268.5s-164.166 -110.5 -269.499 -110.5s-194.833 36.833 -268.5 110.5s-110.5 163.167 -110.5 268.5zM361.999 -25l938 1446h109
l-940 -1446h-107zM175.999 1042c0 -79.333 26.832 -146.499 80.499 -201.499s119.834 -82.5 198.501 -82.5c77.333 0 143.333 27.667 198 83s82 122.333 82 201c0 79.333 -27.333 146.666 -82 201.999s-120.667 83 -198 83c-78 0 -144 -27.5 -198 -82.5
s-81 -122.5 -81 -202.5zM75.998 1042c0 106 36.667 195.667 110 269s163 110 269 110c105.333 0 194.833 -36.667 268.5 -110s110.5 -163 110.5 -269c0 -105.333 -36.833 -194.666 -110.5 -267.999s-163.167 -110 -268.5 -110c-106 0 -195.667 36.667 -269 110
s-110 162.666 -110 267.999z" />
    <glyph glyph-name="guilsinglleft" unicode="&#x2039;" horiz-adv-x="530" 
d="M455 774l-250 -313l250 -311h-129l-250 311l250 313h129z" />
    <glyph glyph-name="guilsinglright" unicode="&#x203a;" horiz-adv-x="530" 
d="M76 774h127l252 -313l-252 -311h-127l250 311z" />
    <glyph glyph-name="franc" unicode="&#x20a3;" horiz-adv-x="1593" 
d="M164 0v1399h710v-94h-593v-517h536v-92h-536v-696h-117zM1052 0l0.00195312 923.999h103v-228c57.333 88 109.666 150.667 156.999 188s96.666 56 147.999 56c28 0 55.167 -5.66699 81.5 -17s53.833 -29 82.5 -53l-56 -98c-28 22.667 -53.5 39.334 -76.5 50.001
s-45.167 16 -66.5 16c-41.333 0 -83.333 -20 -126 -60s-90.667 -104.667 -144 -194v-584h-103z" />
    <glyph glyph-name="trademark" unicode="&#x2122;" horiz-adv-x="1706" 
d="M926 1454l174 -440l162 440h102v-530h-59v479l-181 -479h-49l-190 479v-479h-60v530h101zM694 1454v-51h-174v-479h-67v479h-179v51h420z" />
    <glyph glyph-name="partialdiff" unicode="&#x2202;" 
d="M750 578c7.33301 46 12.833 94.1689 16.5 144.502s5.5 103.833 5.5 160.5c0 119.333 -12.667 208.166 -38 266.499s-64 87.5 -116 87.5c-30 0 -63.167 -24.5 -99.5 -73.5s-72.5 -73.5 -108.5 -73.5c-19.333 0 -35.5 6.16699 -48.5 18.5s-19.5 27.833 -19.5 46.5
c0 39.333 20.333 73.333 61 102s90 43 148 43c106.667 0 191.334 -49 254.001 -147s94 -231.667 94 -401c0 -223.333 -43.833 -409 -131.5 -557s-195.5 -222 -323.5 -222c-92.667 0 -167.334 35 -224.001 105s-85 163.333 -85 280c0 115.333 35.667 214.166 107 296.499
s157.333 123.5 258 123.5c64.667 0 117.5 -16.333 158.5 -49s71.5 -83 91.5 -151zM713 459.002c0 83.333 -15.667 146.832 -47 190.499s-77.333 65.5 -138 65.5c-78 0 -141.5 -41.667 -190.5 -125s-73.5 -193.333 -73.5 -330c0 -78 15.833 -137.833 47.5 -179.5
s77.5 -62.5 137.5 -62.5c76 0 139 41.833 189 125.5s75 188.834 75 315.501z" />
    <glyph glyph-name="Delta" unicode="&#x2206;" horiz-adv-x="1335" 
d="M1155 121l-487 1233l-490 -1233h977zM754 1473l592 -1473h-1358l594 1473h172z" />
    <glyph glyph-name="product" unicode="&#x220f;" horiz-adv-x="1491" 
d="M164 1473h1163v-1866h-135v1743h-893v-1743h-135v1866z" />
    <glyph glyph-name="summation" unicode="&#x2211;" horiz-adv-x="1290" 
d="M45 1473h1208v-123h-1038l721 -787l-760 -835h1077v-121h-1243v127l752 829l-717 787v123z" />
    <glyph glyph-name="minus" unicode="&#x2212;" horiz-adv-x="1706" 
d="M1452 651v-82h-1198v82h1198z" />
    <glyph glyph-name="fraction" unicode="&#x2215;" horiz-adv-x="342" 
d="M575 1421h107l-915 -1446h-109z" />
    <glyph glyph-name="periodcentered" unicode="&#x2219;" horiz-adv-x="516" 
d="M166 700c0 26 9 48 27 66s39.667 27 65 27s47 -9 65 -27s27 -40 27 -66c0 -25.333 -9 -47 -27 -65s-39.667 -27 -65 -27s-47 9 -65 27s-27 39.667 -27 65z" />
    <glyph glyph-name="radical" unicode="&#x221a;" horiz-adv-x="1264" 
d="M1264 1626v-61h-129l-596 -1606h-31l-330 907l-110 -39l-15 50l230 79l278 -759l531 1429h172z" />
    <glyph glyph-name="infinity" unicode="&#x221e;" horiz-adv-x="1706" 
d="M889 557c36 -68.667 77.667 -120 125 -154s101.333 -51 162 -51c71.333 0 130 26 176 78s69 118.333 69 199c0 79.333 -21.167 144.833 -63.5 196.5s-95.5 77.5 -159.5 77.5c-58 0 -110.5 -25.833 -157.5 -77.5s-97.5 -141.167 -151.5 -268.5zM819 670
c-34.667 68 -75.834 119.001 -123.501 153.001s-102.167 51 -163.5 51c-72 0 -130.833 -25.833 -176.5 -77.5s-68.5 -117.834 -68.5 -198.501c0 -78.667 21.167 -143.667 63.5 -195s95.5 -77 159.5 -77c58.667 0 111.334 25.333 158.001 76s97 140 151 268zM836 713.001
c44 92.667 92.666 161.499 145.999 206.499s112.333 67.5 177 67.5c86.667 0 159.834 -35.333 219.501 -106s89.5 -159 89.5 -265c0 -110 -26.667 -198.833 -80 -266.5s-123.333 -101.5 -210 -101.5c-62.667 0 -117.834 20.167 -165.501 60.5s-95.167 107.5 -142.5 201.5
c-47.333 -92.667 -96.833 -160.5 -148.5 -203.5s-109.167 -64.5 -172.5 -64.5c-86.667 0 -160.167 35.5 -220.5 106.5s-90.5 158.833 -90.5 263.5c0 110.667 26.667 199.834 80 267.501s123.333 101.5 210 101.5c65.333 0 122.833 -21.5 172.5 -64.5
s94.834 -110.833 135.501 -203.5z" />
    <glyph glyph-name="integral" unicode="&#x222b;" horiz-adv-x="948" 
d="M401 578c0 332 28.833 576.332 86.5 732.999s147.167 235 268.5 235c43.333 0 78.666 -11.667 105.999 -35s41 -53.333 41 -90c0 -30 -9.16699 -53.833 -27.5 -71.5s-43.166 -26.5 -74.499 -26.5c-51.333 0 -85.166 21.5 -101.499 64.5s-27.5 64.5 -33.5 64.5
c-44.667 0 -75.667 -53 -93 -159s-26 -335 -26 -687c0 -339.333 -28.5 -587 -85.5 -743s-146.5 -234 -268.5 -234c-42.667 0 -78 11.5 -106 34.5s-42 51.167 -42 84.5c0 32 9.5 57.833 28.5 77.5s44.5 29.5 76.5 29.5c22 0 40.667 -4.5 56 -13.5
s28.666 -23.167 39.999 -42.5c5.33301 -9.33301 9.5 -24.166 12.5 -44.499s11.167 -30.5 24.5 -30.5c44 0 74.667 55 92 165s26 339.667 26 689z" />
    <glyph glyph-name="approxequal" unicode="&#x2248;" horiz-adv-x="1706" 
d="M1530 485c-70.667 -49.333 -138 -86.167 -202 -110.5s-125.667 -36.5 -185 -36.5c-70.667 0 -169.167 23.5 -295.5 70.5s-220.5 70.5 -282.5 70.5c-55.333 0 -112.333 -11.833 -171 -35.5s-130.667 -65.167 -216 -124.5v93c70 48.667 137 85 201 109s126 36 186 36
c70.667 0 169.167 -23.167 295.5 -69.5s220.5 -69.5 282.5 -69.5c55.333 0 112.333 11.833 171 35.5s130.667 65.167 216 124.5v-93zM1530 808.999c-70 -48.667 -136.831 -85 -200.498 -109s-125.834 -36 -186.501 -36c-70.667 0 -169.167 23.167 -295.5 69.5
s-220.5 69.5 -282.5 69.5c-55.333 0 -112.333 -11.833 -171 -35.5s-130.667 -65.167 -216 -124.5v92c70.667 50 138 87.167 202 111.5s125.667 36.5 185 36.5c70.667 0 169.167 -23.667 295.5 -71s220.5 -71 282.5 -71c54 0 110.167 12 168.5 36s131.166 66 218.499 126v-94
z" />
    <glyph glyph-name="notequal" unicode="&#x2260;" horiz-adv-x="1706" 
d="M1280 1108l-217 -277h389v-79h-440l-219 -283h659v-82h-711l-254 -324l-61 48l215 276h-387v82h436l221 283h-657v79h709l254 326z" />
    <glyph glyph-name="lessequal" unicode="&#x2264;" horiz-adv-x="1706" 
d="M1442 129v-80h-1178v80h1178zM1442 1083l-1043 -350l1043 -352v-88l-1178 405v70l1178 403v-88z" />
    <glyph glyph-name="greaterequal" unicode="&#x2265;" horiz-adv-x="1706" 
d="M1442 129v-80h-1178v80h1178zM1442 768v-70l-1178 -405v88l1043 352l-1043 350v88z" />
    <glyph glyph-name="lozenge" unicode="&#x25ca;" horiz-adv-x="1012" 
d="M506 1409l-385 -817l385 -825l385 825zM506 1653l500 -1061l-500 -1069l-500 1069z" />
    <glyph glyph-name="apple" unicode="&#xf000;" horiz-adv-x="1618" 
d="M836 1216c-0.666992 4 -1.16699 8.66895 -1.5 14.002s-0.5 13 -0.5 23c0 82.667 31.667 159.167 95 229.5s142 114.166 236 131.499c0.666992 -6.66699 1.16699 -14.334 1.5 -23.001s0.5 -21.667 0.5 -39c0 -87.333 -34.5 -165.5 -103.5 -234.5
s-136.833 -103.5 -203.5 -103.5h-8c-2 0 -4.5 0.333008 -7.5 1s-5.83301 1 -8.5 1zM1505 403.002c-76 -164.667 -144.336 -278.834 -205.003 -342.501s-128.667 -95.5 -204 -95.5c-33.333 0 -77.166 11 -131.499 33s-95.166 33 -122.499 33c-30 0 -73.667 -11 -131 -33
s-99.666 -33 -126.999 -33c-42.667 0 -85.5 14.667 -128.5 44s-86.167 73.333 -129.5 132c-68 93.333 -120.5 191.833 -157.5 295.5s-55.5 203.834 -55.5 300.501c0 146 41.667 264.833 125 356.5s191 137.5 323 137.5c45.333 0 97 -11.333 155 -34s99.333 -34 124 -34
c22.667 0 63.167 11.667 121.5 35s109.166 35 152.499 35c73.333 0 139.333 -13.333 198 -40s112.334 -68 161.001 -124c-68 -43.333 -118.5 -91.833 -151.5 -145.5s-49.5 -114.5 -49.5 -182.5c0 -75.333 20 -142 60 -200s97.667 -104 173 -138z" />
    <glyph glyph-name="fi" unicode="&#xf001;" horiz-adv-x="872" 
d="M639 0v924h102v-924h-102zM131 0l-0.000976562 838h-149v86h149v145c0 112.667 25.833 198.167 77.5 256.5s127.5 87.5 227.5 87.5c89.333 0 161.333 -24.167 216 -72.5s84.334 -114.833 89.001 -199.5h-102c-5.33301 58.667 -25.5 104 -60.5 136s-82.5 48 -142.5 48
c-70 0 -120.833 -19.833 -152.5 -59.5s-47.5 -103.167 -47.5 -190.5v-151h170v-86h-170v-838h-105z" />
    <glyph glyph-name="fi" unicode="&#xfb01;" horiz-adv-x="872" 
d="M639 0v924h102v-924h-102zM131 0l-0.000976562 838h-149v86h149v145c0 112.667 25.833 198.167 77.5 256.5s127.5 87.5 227.5 87.5c89.333 0 161.333 -24.167 216 -72.5s84.334 -114.833 89.001 -199.5h-102c-5.33301 58.667 -25.5 104 -60.5 136s-82.5 48 -142.5 48
c-70 0 -120.833 -19.833 -152.5 -59.5s-47.5 -103.167 -47.5 -190.5v-151h170v-86h-170v-838h-105z" />
    <glyph glyph-name="fl" unicode="&#xf002;" horiz-adv-x="872" 
d="M639 0v1399h102v-1399h-102zM131 0l0.000976562 837.999h-149v86h149v96c0 134.667 25.333 233.167 76 295.5s130.334 93.5 239.001 93.5c18 0 36.667 -1.16699 56 -3.5s39.666 -6.16602 60.999 -11.499v-87c-17.333 4.66699 -35.5 8.16699 -54.5 10.5
s-38.833 3.5 -59.5 3.5c-74.667 0 -128.834 -21.333 -162.501 -64s-50.5 -112 -50.5 -208v-125h170v-86h-170v-838h-105z" />
    <glyph glyph-name="fl" unicode="&#xfb02;" horiz-adv-x="872" 
d="M639 0v1399h102v-1399h-102zM131 0l0.000976562 837.999h-149v86h149v96c0 134.667 25.333 233.167 76 295.5s130.334 93.5 239.001 93.5c18 0 36.667 -1.16699 56 -3.5s39.666 -6.16602 60.999 -11.499v-87c-17.333 4.66699 -35.5 8.16699 -54.5 10.5
s-38.833 3.5 -59.5 3.5c-74.667 0 -128.834 -21.333 -162.501 -64s-50.5 -112 -50.5 -208v-125h170v-86h-170v-838h-105z" />
    <glyph glyph-name=".null" horiz-adv-x="0" 
 />
    <glyph glyph-name="nonmarkingreturn" horiz-adv-x="516" 
 />
    </font>
</defs>
</svg>
